<svg version="1.1" id="Layer_1" xmlns="http://www.w3.org/2000/svg" xmlns:xlink="http://www.w3.org/1999/xlink" x="0px" y="0px"
	 width="100%" viewBox="0 0 1108 325" enable-background="new 0 0 1108 325" xml:space="preserve">
<path fill="#FFFEFE" opacity="1.000000" stroke="none" 
	d="
M757.000000,326.000000 
	C506.166656,326.000000 255.833328,325.990204 5.500039,326.093353 
	C1.750827,326.094879 0.901152,325.249634 0.905338,321.499908 
	C1.023100,216.000031 1.021334,110.499977 0.904565,5.000106 
	C0.900775,1.576064 1.576611,0.905147 5.000026,0.906081 
	C371.666656,1.006178 738.333313,1.006178 1105.000000,0.906081 
	C1108.423340,0.905147 1109.099365,1.576066 1109.095581,5.000105 
	C1108.978760,110.666641 1108.978760,216.333359 1109.095459,321.999908 
	C1109.099243,325.423950 1108.423828,326.098663 1104.999878,326.095276 
	C989.166687,325.980560 873.333313,326.000000 757.000000,326.000000 
z"/>
<path fill="#050505" opacity="1.000000" stroke="none" 
	d="
M632.674683,153.596069 
	C633.664490,157.689819 632.067078,160.877869 630.161499,163.785294 
	C623.211365,174.389694 614.346191,183.154327 603.303162,189.383636 
	C591.979065,195.771423 583.979736,190.996292 583.760742,177.966949 
	C583.513123,163.243423 586.427368,148.826706 588.441223,134.333435 
	C590.273193,121.149887 592.462830,108.009819 593.387451,94.720543 
	C593.707642,90.117828 594.387939,84.892731 589.626404,82.081871 
	C584.750244,79.203323 580.310852,82.139290 576.235596,84.745140 
	C574.011353,86.167381 571.865967,87.880432 570.110779,89.843109 
	C552.280151,109.782257 539.794495,132.200287 537.925110,159.549820 
	C537.437317,166.686279 536.508057,173.792191 535.808716,180.914795 
	C535.640564,182.628113 535.397583,184.135483 533.447876,184.877197 
	C527.571411,187.112762 521.739746,189.465805 515.292786,192.008850 
	C516.732544,178.458359 518.110046,165.450943 519.497681,152.444611 
	C521.403931,134.576309 523.388062,116.715820 525.167419,98.834915 
	C525.510559,95.386703 525.380188,91.816910 524.912537,88.378777 
	C524.073547,82.210342 520.137756,79.924599 514.178772,81.670586 
	C509.369965,83.079590 505.532593,86.045563 502.336761,89.673378 
	C485.132538,109.203339 472.997986,131.107956 470.897278,157.665115 
	C470.293579,165.297211 469.272308,172.895813 468.626617,180.525330 
	C468.399536,183.208389 467.320251,184.564697 464.729675,185.464966 
	C459.262054,187.364990 453.937073,189.675537 447.958130,192.054581 
	C449.136963,181.373703 450.257233,171.199692 451.383240,161.026321 
	C453.854797,138.695862 456.363129,116.369370 458.765259,94.031448 
	C459.119354,90.738846 459.322418,87.378792 458.535522,84.086441 
	C457.649139,80.377777 455.491882,79.234612 451.854858,80.637184 
	C447.772339,82.211533 444.864349,85.190865 442.470367,88.596519 
	C439.801697,92.392883 437.541870,96.478996 435.157104,100.470673 
	C434.653778,101.313164 434.280426,102.617500 433.254822,102.367363 
	C432.463562,102.174385 431.685760,101.090233 431.301819,100.224907 
	C430.281952,97.926208 430.770782,95.587631 431.935394,93.510361 
	C439.208618,80.537331 449.303040,70.300003 462.841675,64.101189 
	C471.406403,60.179741 478.317902,65.100319 478.823669,74.912193 
	C479.322784,84.594498 477.395294,94.147141 476.595337,103.761475 
	C476.360809,106.580185 476.000092,109.388397 475.583740,112.636398 
	C475.771851,113.382774 476.140625,113.499802 476.813629,113.265244 
	C484.829742,100.667130 492.929352,88.493141 503.534668,78.250458 
	C510.405151,71.614906 517.866577,65.893745 527.495911,63.734638 
	C539.202271,61.109840 545.381165,65.677498 545.885193,77.824005 
	C546.279480,87.326363 544.312561,96.684067 543.555298,106.119621 
	C543.289673,109.429085 542.836548,112.723495 542.430420,116.410194 
	C542.858643,117.178337 542.254395,118.067413 543.065491,118.232330 
	C543.146362,118.248764 543.387085,117.704453 543.850464,117.268997 
	C553.049072,100.378944 563.690613,84.983528 578.549622,72.890602 
	C583.882080,68.550827 589.625854,64.947655 596.471558,63.446484 
	C606.827637,61.175552 613.450745,66.151260 614.028503,76.741379 
	C614.678345,88.652550 612.026917,100.252571 610.558838,111.959267 
	C608.302917,129.947144 604.788879,147.774582 603.610535,165.898254 
	C603.389099,169.304077 602.316528,173.627106 605.983521,175.419540 
	C609.862549,177.315582 612.794006,173.780655 615.421875,171.362869 
	C621.378479,165.882507 625.696167,159.188614 629.186646,151.526978 
	C631.114685,150.803528 631.901978,151.972992 632.674683,153.596069 
z"/>
<path fill="#AB7D62" opacity="1.000000" stroke="none" 
	d="
M767.482544,107.162704 
	C766.679626,114.334534 766.001526,121.123726 765.137207,127.889130 
	C764.770691,130.758636 765.260742,132.060410 768.650818,132.045486 
	C796.812500,131.921387 824.975403,132.054062 853.136536,131.879715 
	C856.536682,131.858673 859.920288,130.433594 863.325317,129.725464 
	C881.204529,126.007256 894.259644,135.119461 897.061340,153.129318 
	C900.792175,177.111496 893.766479,198.218292 879.878296,217.443207 
	C872.515015,227.635895 864.167297,236.896744 853.027405,243.174713 
	C844.346252,248.066971 835.088318,250.396286 825.171021,248.383026 
	C813.597534,246.033524 806.788330,237.602432 804.937195,224.146301 
	C801.457825,198.853943 808.990967,176.813599 824.613525,157.159912 
	C827.406067,153.646774 830.430725,150.318237 833.339966,146.914169 
	C833.043152,145.707306 832.079407,146.070450 831.342590,146.069901 
	C810.179321,146.053986 789.015625,146.120743 767.853210,145.989059 
	C764.487305,145.968109 763.315063,146.926361 762.967163,150.398224 
	C760.942932,170.598038 758.576355,190.763260 756.467224,210.954987 
	C755.863770,216.731659 755.168823,222.592773 756.913696,228.314102 
	C758.558350,233.706894 762.670776,235.965103 768.133667,234.529785 
	C775.012390,232.722443 779.313293,227.622711 783.490845,222.358353 
	C784.238586,221.416138 784.766357,219.447250 786.345886,220.218658 
	C787.700134,220.880081 788.023499,222.696976 787.708252,224.220688 
	C787.197815,226.687668 786.179626,228.973679 784.556152,230.943756 
	C778.738647,238.002930 771.729675,243.582458 763.296265,247.117737 
	C749.559875,252.876022 738.712524,245.982895 737.930969,231.131439 
	C737.244873,218.093582 739.179565,205.216232 740.539551,192.309982 
	C741.986755,178.576126 743.400574,164.836670 745.084595,151.131073 
	C745.616089,146.805069 744.170288,145.722687 740.038635,145.947571 
	C733.753235,146.289688 727.435425,146.037125 720.228271,144.868835 
	C724.541687,140.853210 728.656128,136.589096 733.243530,132.915588 
	C735.976135,130.727386 739.708557,132.003067 742.951050,132.082504 
	C746.118347,132.160095 747.450073,131.117233 747.666077,127.992271 
	C747.906616,124.512161 749.005981,121.023392 748.797607,117.595177 
	C748.423401,111.440102 751.157227,108.489502 756.956299,107.432037 
	C759.716003,106.928810 762.381226,105.828346 765.035461,104.852165 
	C767.054321,104.109665 767.900940,104.565331 767.482544,107.162704 
z"/>
<path fill="#AB7D63" opacity="1.000000" stroke="none" 
	d="
M633.048889,154.083542 
	C631.721680,153.174286 630.718811,152.402634 629.531860,151.422211 
	C629.534607,149.191910 627.797180,148.356125 626.698730,147.271927 
	C612.134949,132.897690 614.711975,109.097565 626.654724,95.924561 
	C641.680908,79.350548 661.014221,75.453934 682.201233,77.494553 
	C690.876404,78.330086 699.097290,80.986404 706.997375,84.701279 
	C709.281494,85.775314 709.891663,86.795967 708.748596,89.229279 
	C705.424255,96.306152 702.361328,103.505508 699.160645,110.641045 
	C698.270203,112.626129 697.256226,114.569138 695.145386,115.563225 
	C693.872253,116.162804 692.532043,116.183777 691.289612,115.519455 
	C689.595215,114.613541 690.566528,113.296227 690.806458,112.038391 
	C693.240967,99.273834 689.498718,92.714912 677.151001,88.446953 
	C668.087524,85.314156 658.797974,85.117195 649.610535,87.627304 
	C634.369995,91.791199 628.478821,109.141022 637.631958,123.063789 
	C643.562805,132.085129 652.218506,138.516525 660.263794,145.490707 
	C668.690735,152.795746 677.791443,159.321182 685.718323,167.199417 
	C707.913025,189.257935 705.715454,219.517166 680.201843,237.667389 
	C660.977356,251.343536 639.391785,254.043976 616.833374,248.547348 
	C605.961304,245.898254 598.046265,238.880112 593.077698,228.681564 
	C591.684692,225.822235 591.731262,223.912643 594.869385,222.228867 
	C599.705200,219.634201 604.357056,216.689209 609.028198,213.798080 
	C611.294739,212.395325 612.247559,212.550873 613.074158,215.463699 
	C619.908264,239.546219 646.130188,249.844833 667.979431,237.164719 
	C681.738586,229.179672 686.465576,213.771164 679.539001,199.178619 
	C675.831421,191.367828 670.237427,184.999115 663.685364,179.476089 
	C653.630005,170.999985 643.481934,162.633911 633.048889,154.083542 
z"/>
<path fill="#040404" opacity="1.000000" stroke="none" 
	d="
M252.199295,67.160133 
	C256.977264,65.016914 261.610199,63.692039 266.424530,63.165524 
	C285.202179,61.111919 297.436768,70.909546 300.086060,89.688354 
	C303.910370,116.796188 295.261047,140.181290 279.023468,161.322845 
	C272.088623,170.352112 264.256653,178.518463 254.433334,184.496429 
	C246.467896,189.343781 237.899445,192.178177 228.439667,192.021179 
	C214.813721,191.795013 205.660767,185.244080 202.046356,172.015427 
	C197.517731,155.440598 198.773346,138.912201 205.064774,123.052200 
	C214.452576,99.386589 228.900421,79.715866 252.199295,67.160133 
z"/>
<path fill="#040404" opacity="1.000000" stroke="none" 
	d="
M415.992981,89.072479 
	C420.764923,127.631042 404.039917,156.443161 376.334167,180.342072 
	C369.974823,185.827652 362.453766,189.450104 354.107422,191.060104 
	C331.786346,195.365906 317.996674,184.672958 315.954041,162.030624 
	C313.467316,134.465073 323.130951,111.157394 340.241333,90.322662 
	C347.910614,80.984093 356.545013,72.746674 367.615265,67.472672 
	C374.329407,64.273964 381.390839,62.705753 388.869659,62.995068 
	C401.537415,63.485119 410.113495,69.830818 414.137299,81.918701 
	C414.869385,84.118034 415.355988,86.399086 415.992981,89.072479 
z"/>
<path fill="#050505" opacity="1.000000" stroke="none" 
	d="
M122.230705,151.249817 
	C117.122681,158.057892 112.239418,164.588455 107.377983,171.135208 
	C107.220016,171.347916 107.284744,171.726013 107.180130,172.531799 
	C124.466362,170.542618 141.268738,174.363953 158.252899,175.809036 
	C165.804901,176.451614 173.298401,176.052094 179.382370,170.480026 
	C181.968109,168.111847 182.636795,170.646240 182.927048,172.204788 
	C183.578827,175.704773 182.021118,178.741760 179.903091,181.404633 
	C172.800201,190.334686 163.520935,193.145035 152.368774,191.676132 
	C140.152771,190.067093 127.856133,189.146179 115.513008,189.031677 
	C104.333900,188.927979 93.249641,189.883194 81.442932,191.934967 
	C85.252480,183.977264 88.039093,175.873337 93.402000,169.583801 
	C115.023140,144.226852 135.534653,118.005951 155.698761,91.498085 
	C157.405334,89.254608 159.102707,87.004128 161.256378,84.159943 
	C146.926819,84.270447 134.026398,79.450493 120.743095,76.355492 
	C111.620422,74.229919 106.400955,81.201958 109.488831,91.061890 
	C110.388756,93.935493 110.130020,95.494476 107.779099,97.325096 
	C103.723511,100.483109 99.949844,104.003159 95.492104,107.860924 
	C94.321266,101.177025 94.650764,95.216675 96.469475,89.341026 
	C102.696404,69.223885 118.777046,60.451111 141.005661,64.290100 
	C152.739929,66.316666 164.485321,69.573830 176.609116,67.067566 
	C179.982437,66.370224 183.330780,65.552063 188.127441,64.463127 
	C183.683502,72.314644 180.751083,80.112999 175.647202,86.042175 
	C157.382599,107.260208 140.432236,129.533783 122.230705,151.249817 
z"/>
<path fill="#AB7E63" opacity="1.000000" stroke="none" 
	d="
M1016.054199,231.808243 
	C1010.153198,217.006042 1011.992371,202.574600 1016.942017,188.539276 
	C1024.406128,167.373932 1036.688232,149.389404 1054.910767,135.918121 
	C1061.184204,131.280426 1068.350708,128.706085 1076.354492,128.986328 
	C1084.651001,129.276779 1089.517212,134.002075 1090.083374,142.374985 
	C1091.087769,157.222183 1084.055420,168.635971 1074.314697,178.753204 
	C1063.361328,190.130112 1050.135986,198.012146 1035.070923,202.604630 
	C1031.365601,203.734192 1030.493896,205.382477 1030.973755,208.963318 
	C1032.856689,223.014145 1040.114380,231.906509 1051.087769,232.840271 
	C1060.238892,233.618988 1068.058960,230.387115 1074.717407,224.185989 
	C1079.021606,220.177505 1082.443848,215.498001 1085.310181,210.373627 
	C1085.890137,209.336731 1086.185425,207.447876 1087.962891,208.001266 
	C1089.522949,208.486984 1090.176880,210.026703 1090.029663,211.626617 
	C1089.910645,212.919128 1089.761597,214.385544 1089.086060,215.423523 
	C1079.431885,230.256790 1067.629761,242.760788 1050.040527,247.812332 
	C1035.158936,252.086258 1023.951904,246.554764 1016.054199,231.808243 
z"/>
<path fill="#AB7E63" opacity="1.000000" stroke="none" 
	d="
M910.921875,162.394043 
	C910.500854,158.453278 912.017517,155.484634 913.996399,152.764420 
	C920.035339,144.463028 927.411316,137.545380 936.099548,132.076065 
	C937.769714,131.024658 939.649414,130.219437 941.532227,129.608170 
	C948.392090,127.381165 953.997925,130.736618 955.084900,137.848251 
	C956.539917,147.367355 954.216919,156.720810 953.500732,166.141953 
	C953.198975,170.110352 952.571350,174.053986 952.681824,178.327881 
	C955.338318,173.924210 957.925476,169.476868 960.665039,165.125519 
	C967.430359,154.379730 974.794739,144.121124 985.127319,136.417282 
	C994.026855,129.781921 1003.702271,127.038155 1014.699707,130.400391 
	C1018.440186,131.543930 1018.888855,132.903976 1016.002808,135.619232 
	C1013.827881,137.665436 1011.838806,139.938187 1009.963989,142.268585 
	C1005.661926,147.616013 1001.788086,151.988510 993.281433,149.381805 
	C986.566833,147.324203 980.425354,151.961304 975.633545,156.808212 
	C959.906433,172.716156 950.509033,191.765152 947.967712,214.083832 
	C946.970764,222.838928 945.924622,231.588913 945.018066,240.353348 
	C944.838501,242.089584 944.176147,243.084076 942.564880,243.635895 
	C937.563232,245.348801 932.579041,247.112762 926.936035,249.084793 
	C928.136597,237.912140 929.249084,227.365524 930.407043,216.823914 
	C932.549561,197.319458 934.740540,177.820267 936.848145,158.312088 
	C937.097534,156.004456 937.065674,153.649414 936.967651,151.324631 
	C936.710693,145.231979 933.294434,143.413376 927.964050,146.562408 
	C921.615723,150.312790 918.403198,156.622971 915.236816,162.847717 
	C913.482422,166.296768 912.354370,165.939987 910.921875,162.394043 
z"/>
<path fill="#929292" opacity="1.000000" stroke="none" 
	d="
M543.800293,117.198303 
	C544.077637,118.455513 543.377441,119.438011 542.405151,120.358597 
	C541.596130,119.340973 541.944092,118.371223 542.206665,117.112129 
	C542.765503,116.969757 543.139099,117.143890 543.800293,117.198303 
z"/>
<path fill="#6C6C6C" opacity="1.000000" stroke="none" 
	d="
M476.662598,113.137108 
	C477.119843,114.040100 476.569550,114.821434 475.781525,114.942200 
	C474.965607,115.067245 474.963806,114.190369 475.253906,113.301468 
	C475.735138,113.112419 475.999969,113.153450 476.662598,113.137108 
z"/>
<path fill="#FEFEFD" opacity="1.000000" stroke="none" 
	d="
M870.293579,148.698120 
	C875.566345,154.324081 877.642334,161.020187 878.400391,168.021545 
	C880.504639,187.456589 879.177185,206.315399 867.399414,223.002121 
	C863.762939,228.154266 859.126587,232.114334 852.968689,233.978455 
	C841.879395,237.335419 831.692200,232.709671 827.024414,222.110840 
	C822.300354,211.384460 822.305237,199.978333 823.272888,188.692886 
	C824.562561,173.652374 828.574646,159.464188 840.433716,148.893417 
	C849.156982,141.117798 861.082520,141.029556 870.293579,148.698120 
z"/>
<path fill="#FDFDFD" opacity="1.000000" stroke="none" 
	d="
M279.463593,102.781906 
	C282.030792,121.324188 281.071442,139.055466 272.937042,155.816086 
	C269.564362,162.765381 265.152344,168.980331 258.384430,173.149826 
	C244.999222,181.396072 229.732834,176.516632 223.827301,162.028900 
	C219.235382,150.763763 219.358826,138.907547 220.217743,127.125046 
	C221.236786,113.145958 225.163513,100.028458 234.199112,88.906136 
	C238.507889,83.602242 243.818939,79.824554 250.685059,78.454346 
	C261.381256,76.319801 271.224640,81.128181 275.863251,90.975555 
	C277.565552,94.589417 278.804657,98.380287 279.463593,102.781906 
z"/>
<path fill="#FDFDFD" opacity="1.000000" stroke="none" 
	d="
M396.203766,108.922241 
	C397.794922,127.122902 395.879822,144.265884 386.687317,159.931702 
	C382.032623,167.864243 375.936584,174.280670 366.386749,176.380234 
	C354.588043,178.974228 343.871887,174.168167 340.121307,162.238129 
	C332.052124,136.571075 333.893463,111.692047 350.083893,89.183746 
	C355.403046,81.788986 362.918396,77.701355 372.334412,78.061745 
	C381.054810,78.395515 387.511292,82.461601 391.472931,90.265594 
	C394.370178,95.972855 395.744659,102.107338 396.203766,108.922241 
z"/>
<path fill="#FEFDFC" opacity="1.000000" stroke="none" 
	d="
M1073.683838,151.703430 
	C1076.540649,160.504578 1074.974609,168.266861 1069.438110,174.996262 
	C1061.113403,185.114761 1050.150024,189.972336 1037.075562,189.920914 
	C1031.314697,189.898270 1030.792847,189.148026 1031.799438,183.575775 
	C1034.089844,170.896210 1038.330566,159.122421 1048.168701,150.191757 
	C1056.469971,142.656219 1067.475708,143.259521 1073.683838,151.703430 
z"/>
</svg>