<svg version="1.1" id="Layer_1" xmlns="http://www.w3.org/2000/svg" xmlns:xlink="http://www.w3.org/1999/xlink" x="0px" y="0px"
	 width="100%" viewBox="0 0 1200 1200" enable-background="new 0 0 1200 1200" xml:space="preserve">
<path fill="#000000" opacity="1.000000" stroke="none" 
	d="
M789.000000,1201.000000 
	C526.000000,1201.000000 263.500000,1201.000000 1.000000,1201.000000 
	C1.000000,801.000000 1.000000,401.000000 1.000000,1.000000 
	C401.000000,1.000000 801.000000,1.000000 1201.000000,1.000000 
	C1201.000000,401.000000 1201.000000,801.000000 1201.000000,1201.000000 
	C1063.833374,1201.000000 926.666687,1201.000000 789.000000,1201.000000 
M890.012451,648.478577 
	C891.688232,646.476379 893.295532,644.411865 895.051270,642.482422 
	C905.586670,630.904724 916.317932,619.499817 926.635132,607.731567 
	C930.792297,602.989624 932.004272,601.343628 927.044983,595.587097 
	C924.038696,592.097595 920.886902,588.733765 917.815552,585.299927 
	C903.786987,569.615784 889.781494,553.910889 875.730835,538.246582 
	C869.132874,530.890991 862.413696,523.644226 855.815796,516.288635 
	C841.765198,500.624298 827.782898,484.898590 813.722046,469.243408 
	C806.785889,461.520691 799.680115,453.950226 792.751770,446.220642 
	C779.039795,430.922882 765.426636,415.536560 751.714661,400.238831 
	C744.786255,392.509277 737.674011,384.944580 730.745667,377.214996 
	C717.033691,361.917206 703.420593,346.530731 689.708618,331.232941 
	C682.780334,323.503387 675.661621,315.944336 668.741089,308.207947 
	C655.377197,293.268616 642.133057,278.222076 628.759216,263.291687 
	C621.500916,255.188705 614.006104,247.297455 606.756775,239.186615 
	C602.586853,234.521088 600.105103,234.095566 595.983765,238.569092 
	C586.843567,248.490463 577.899109,258.592163 568.871887,268.617645 
	C559.733215,278.766876 550.588623,288.910706 541.450806,299.060760 
	C529.452759,312.387909 517.458801,325.718719 505.463165,339.048035 
	C493.467468,352.377289 481.471802,365.706573 469.476105,379.035828 
	C457.480438,392.365082 445.483765,405.693512 433.489349,419.023865 
	C424.577057,428.928802 415.666534,438.835358 406.757172,448.742950 
	C391.908325,465.255646 377.058746,481.767761 362.213867,498.284027 
	C353.417999,508.070160 344.673004,517.902283 335.829407,527.645020 
	C321.987152,542.894592 308.071716,558.077759 294.205536,573.305603 
	C287.777496,580.364990 281.235596,587.330383 275.062378,594.607361 
	C272.464111,597.670166 270.203705,601.282715 273.914490,605.413269 
	C281.706726,614.087036 289.365997,622.880188 297.112427,631.595337 
	C305.411865,640.932556 313.722382,650.260254 322.075470,659.549438 
	C334.399445,673.254639 346.776733,686.911804 359.109589,700.609070 
	C367.802704,710.263794 376.420074,719.987061 385.142029,729.615540 
	C398.633362,744.509216 412.218536,759.317871 425.695740,774.224304 
	C431.453491,780.592712 437.039429,787.116455 443.261963,794.205872 
	C353.673462,794.205872 264.944244,794.205872 176.297607,794.205872 
	C176.297607,836.321899 176.297607,878.057983 176.297607,919.999817 
	C178.404938,919.999817 180.219803,919.999817 182.034653,919.999817 
	C305.027161,919.999817 428.019684,920.032776 551.011963,919.870239 
	C555.558411,919.864197 558.386169,921.501831 561.148926,924.603333 
	C572.965820,937.869080 584.974915,950.964905 596.698059,964.312317 
	C599.901062,967.959106 602.426697,967.225891 605.190308,964.284546 
	C608.800720,960.441956 612.357849,956.547607 615.870972,952.615845 
	C623.862244,943.672241 631.800049,934.680725 639.786377,925.732666 
	C643.011536,922.119141 646.305420,919.807007 651.932190,919.817932 
	C774.590881,920.056519 897.250183,919.999817 1019.909363,919.999817 
	C1021.848938,919.999817 1023.788513,919.999817 1025.734741,919.999817 
	C1025.734741,877.741943 1025.734741,836.006104 1025.734741,793.999756 
	C981.168213,793.999756 936.866394,793.999817 892.564575,793.999817 
	C848.179077,793.999817 803.793579,793.999756 758.624268,793.999756 
	C767.286072,784.591064 775.388611,775.965088 783.294922,767.162842 
	C796.800293,752.126892 810.140747,736.942810 823.633301,721.895325 
	C831.007568,713.671265 838.608643,705.650940 846.007263,697.448425 
	C860.546936,681.329041 875.016724,665.146606 890.012451,648.478577 
z"/>
<path fill="#F5F7F1" opacity="1.000000" stroke="none" 
	d="
M889.763916,648.734436 
	C875.016724,665.146606 860.546936,681.329041 846.007263,697.448425 
	C838.608643,705.650940 831.007568,713.671265 823.633301,721.895325 
	C810.140747,736.942810 796.800293,752.126892 783.294922,767.162842 
	C775.388611,775.965088 767.286072,784.591064 758.624268,793.999756 
	C803.793579,793.999756 848.179077,793.999817 892.564575,793.999817 
	C936.866394,793.999817 981.168213,793.999756 1025.734741,793.999756 
	C1025.734741,836.006104 1025.734741,877.741943 1025.734741,919.999817 
	C1023.788513,919.999817 1021.848938,919.999817 1019.909363,919.999817 
	C897.250183,919.999817 774.590881,920.056519 651.932190,919.817932 
	C646.305420,919.807007 643.011536,922.119141 639.786377,925.732666 
	C631.800049,934.680725 623.862244,943.672241 615.870972,952.615845 
	C612.357849,956.547607 608.800720,960.441956 605.190308,964.284546 
	C602.426697,967.225891 599.901062,967.959106 596.698059,964.312317 
	C584.974915,950.964905 572.965820,937.869080 561.148926,924.603333 
	C558.386169,921.501831 555.558411,919.864197 551.011963,919.870239 
	C428.019684,920.032776 305.027161,919.999817 182.034653,919.999817 
	C180.219803,919.999817 178.404938,919.999817 176.297607,919.999817 
	C176.297607,878.057983 176.297607,836.321899 176.297607,794.205872 
	C264.944244,794.205872 353.673462,794.205872 443.261963,794.205872 
	C437.039429,787.116455 431.453491,780.592712 425.695740,774.224304 
	C412.218536,759.317871 398.633362,744.509216 385.142029,729.615540 
	C376.420074,719.987061 367.802704,710.263794 359.109589,700.609070 
	C346.776733,686.911804 334.399445,673.254639 322.075470,659.549438 
	C313.722382,650.260254 305.411865,640.932556 297.112427,631.595337 
	C289.365997,622.880188 281.706726,614.087036 273.914490,605.413269 
	C270.203705,601.282715 272.464111,597.670166 275.062378,594.607361 
	C281.235596,587.330383 287.777496,580.364990 294.205536,573.305603 
	C308.071716,558.077759 321.987152,542.894592 335.829407,527.645020 
	C344.673004,517.902283 353.417999,508.070160 362.213867,498.284027 
	C377.058746,481.767761 391.908325,465.255646 406.757172,448.742950 
	C415.666534,438.835358 424.577057,428.928802 433.489349,419.023865 
	C445.483765,405.693512 457.480438,392.365082 469.476105,379.035828 
	C481.471802,365.706573 493.467468,352.377289 505.463165,339.048035 
	C517.458801,325.718719 529.452759,312.387909 541.450806,299.060760 
	C550.588623,288.910706 559.733215,278.766876 568.871887,268.617645 
	C577.899109,258.592163 586.843567,248.490463 595.983765,238.569092 
	C600.105103,234.095566 602.586853,234.521088 606.756775,239.186615 
	C614.006104,247.297455 621.500916,255.188705 628.759216,263.291687 
	C642.133057,278.222076 655.377197,293.268616 668.741089,308.207947 
	C675.661621,315.944336 682.780334,323.503387 689.708618,331.232941 
	C703.420593,346.530731 717.033691,361.917206 730.745667,377.214996 
	C737.674011,384.944580 744.786255,392.509277 751.714661,400.238831 
	C765.426636,415.536560 779.039795,430.922882 792.751770,446.220642 
	C799.680115,453.950226 806.785889,461.520691 813.722046,469.243408 
	C827.782898,484.898590 841.765198,500.624298 855.815796,516.288635 
	C862.413696,523.644226 869.132874,530.890991 875.730835,538.246582 
	C889.781494,553.910889 903.786987,569.615784 917.815552,585.299927 
	C920.886902,588.733765 924.038696,592.097595 927.044983,595.587097 
	C932.004272,601.343628 930.792297,602.989624 926.635132,607.731567 
	C916.317932,619.499817 905.586670,630.904724 895.051270,642.482422 
	C893.295532,644.411865 891.688232,646.476379 889.763916,648.734436 
M531.672424,840.010620 
	C532.070557,840.020264 532.468689,840.029846 532.866394,840.765808 
	C532.897156,853.573669 532.837830,866.382751 533.012878,879.188660 
	C533.066223,883.094177 533.125793,886.681885 528.613464,888.370239 
	C537.571472,888.370239 546.529480,888.370239 555.487488,888.370239 
	C555.503906,888.100952 555.520325,887.831604 555.536743,887.562317 
	C554.073669,887.041870 552.610657,886.521484 551.040039,885.962769 
	C551.040039,869.390503 551.026489,853.077698 551.049500,836.764832 
	C551.055237,832.713928 549.787537,828.060669 555.501526,826.425659 
	C555.542358,826.414001 555.420715,825.834473 555.299133,824.999023 
	C551.757141,824.999023 548.129578,824.999023 544.502014,824.999023 
	C530.577148,824.999023 530.753662,825.035217 527.916199,838.865173 
	C525.901550,848.684631 523.330078,858.389893 520.704651,869.416443 
	C516.950378,855.030701 513.601562,842.036499 510.117828,829.078613 
	C509.734436,827.652588 508.609741,825.316895 507.776245,825.293640 
	C500.149475,825.081238 492.510834,825.276001 484.876923,825.419617 
	C484.624725,825.424438 484.386017,826.146973 483.855530,826.987122 
	C485.625671,827.648682 487.179443,828.229370 488.988403,828.905457 
	C488.988403,845.948059 488.911560,862.917603 489.047821,879.885437 
	C489.078033,883.651489 489.203217,887.067139 484.653931,888.347290 
	C488.596802,888.347290 492.539642,888.347290 496.482513,888.347290 
	C496.487061,888.055664 496.491577,887.763977 496.496124,887.472351 
	C495.112183,887.139465 493.728210,886.806641 492.239563,886.448608 
	C492.239563,869.186829 492.239563,852.198853 492.239563,835.210938 
	C496.861725,850.295837 500.853790,865.489380 505.132599,880.601685 
	C507.938141,890.510559 505.259430,888.725830 516.181458,889.057922 
	C518.922791,889.141235 520.066467,887.983765 520.618530,885.565674 
	C524.085266,870.381042 527.585083,855.203979 531.672424,840.010620 
M831.005249,527.508423 
	C828.977356,525.150696 826.994568,522.752380 824.914246,520.441895 
	C812.583618,506.747406 800.212463,493.089355 787.890808,479.386749 
	C779.539307,470.099304 771.273193,460.735168 762.921692,451.447662 
	C750.600037,437.745056 738.225159,424.090363 725.894653,410.395721 
	C717.203247,400.742737 708.553955,391.051849 699.875000,381.387634 
	C688.006775,368.172028 676.172913,354.925293 664.241089,341.767334 
	C653.392029,329.803497 642.399902,317.969513 631.538513,306.016785 
	C627.909607,302.023163 624.557068,297.779388 620.959595,293.755981 
	C614.410400,286.431488 607.772522,279.186249 600.761658,271.455872 
	C596.026123,276.966949 591.547119,282.359985 586.875610,287.580780 
	C574.698608,301.189636 562.430176,314.716583 550.212097,328.288727 
	C541.410217,338.066071 532.636780,347.868958 523.839783,357.650757 
	C508.881683,374.283325 493.909241,390.902985 478.954224,407.538300 
	C470.270233,417.198029 461.613770,426.882446 452.935425,436.547272 
	C441.067932,449.763702 429.192596,462.972992 417.318665,476.183594 
	C405.444763,489.394196 393.573639,502.607391 381.691620,515.810730 
	C369.587128,529.261230 357.505280,542.732361 345.349304,556.136169 
	C334.723358,567.853027 323.980377,579.463684 313.350311,591.176880 
	C310.406616,594.420593 307.681519,597.862732 305.008301,601.033325 
	C310.810303,607.672424 316.376770,614.158691 322.069733,620.531982 
	C333.902740,633.779114 345.801605,646.967468 357.675537,660.177979 
	C369.549500,673.388611 381.428772,686.594299 393.300598,699.806763 
	C405.061218,712.895386 416.768738,726.032104 428.586212,739.069214 
	C439.432800,751.035217 450.436310,762.859009 461.284271,774.823792 
	C465.237946,779.184631 468.761353,783.944641 472.826355,788.192078 
	C475.417877,790.899902 477.399994,794.151794 482.403992,794.139221 
	C561.550659,793.940857 640.697876,794.017273 719.844910,793.900574 
	C721.866821,793.897644 724.448120,792.960510 725.812195,791.540344 
	C732.422241,784.658569 738.752625,777.504761 745.094177,770.369202 
	C757.854675,756.010986 770.535645,741.582031 783.292847,727.220825 
	C791.808655,717.634338 800.386719,708.102966 808.959656,698.567322 
	C824.026550,681.808655 839.073364,665.031616 854.200806,648.327698 
	C865.042175,636.356567 876.025452,624.514099 886.893555,612.567078 
	C890.396423,608.716431 893.734131,604.715576 897.109619,600.826965 
	C888.202820,591.168091 879.374084,581.796204 870.773254,572.219666 
	C857.604736,557.557251 844.593384,542.753601 831.005249,527.508423 
M463.499756,404.000610 
	C458.618439,409.545746 453.781311,415.130554 448.847504,420.628571 
	C433.904846,437.280060 418.918915,453.892731 403.961395,470.530853 
	C395.275970,480.192230 386.622253,489.882111 377.937164,499.543793 
	C362.980286,516.182617 348.049316,532.844910 333.032196,549.429199 
	C322.189819,561.402954 311.176697,573.222168 300.338135,585.199280 
	C295.655579,590.373840 291.221191,595.772888 286.575378,601.184937 
	C301.544861,617.809692 316.169464,634.074341 330.821930,650.313904 
	C337.552765,657.773743 344.373840,665.152283 351.091766,672.623657 
	C365.494690,688.641907 379.842651,704.709595 394.242645,720.730469 
	C400.847900,728.079224 407.561066,735.331116 414.158264,742.687012 
	C428.207214,758.351807 442.435516,773.865540 456.093262,789.865417 
	C459.958893,794.393799 463.872162,794.263367 469.797882,793.659729 
	C467.617859,791.757935 466.112640,790.694031 464.909943,789.357849 
	C450.498657,773.346802 436.147003,757.282104 421.747681,741.260254 
	C415.142822,733.911194 408.427307,726.661438 401.832458,719.303467 
	C387.899017,703.757812 374.033600,688.151245 360.096436,672.609009 
	C353.388733,665.128784 346.522552,657.790466 339.831909,650.295288 
	C326.705505,635.590210 313.710541,620.767395 300.535858,606.105896 
	C295.944000,600.995850 295.777222,600.817871 300.638458,595.857117 
	C301.104950,595.381042 301.600555,594.931458 302.043365,594.434631 
	C315.601135,579.222717 329.121826,563.977539 342.720734,548.802551 
	C349.759338,540.948181 357.006744,533.280823 364.033569,525.416138 
	C377.055511,510.841492 389.964966,496.166351 402.959564,481.567078 
	C411.597046,471.862976 420.290771,462.208862 428.977570,452.548798 
	C444.048859,435.788849 459.140747,419.047516 474.211182,402.286804 
	C482.897552,392.626221 491.550629,382.935730 500.232910,373.271484 
	C515.073792,356.752136 529.883667,340.204620 544.787476,323.742157 
	C555.628418,311.767395 566.640930,299.948029 577.491150,287.981537 
	C581.445557,283.620300 585.055969,278.947601 588.999207,274.575623 
	C592.765625,270.399750 596.760742,266.430206 601.028442,261.980957 
	C607.540955,269.404266 613.342407,276.115540 619.250916,282.731232 
	C630.973999,295.857513 642.752747,308.934113 654.514893,322.025421 
	C663.419800,331.936646 672.335754,341.837921 681.244873,351.745331 
	C696.093445,368.257660 710.942688,384.769348 725.787292,401.285248 
	C734.583008,411.071136 743.359863,420.873993 752.163940,430.652313 
	C764.385010,444.225739 776.638611,457.769867 788.849976,471.352020 
	C797.313354,480.765564 805.706421,490.242218 814.170776,499.654938 
	C829.353210,516.538513 844.536194,533.421753 859.775574,550.253845 
	C870.281860,561.858093 880.924194,573.339233 891.422180,584.950989 
	C895.481750,589.441284 899.309143,594.141479 903.245178,598.743530 
	C904.964478,600.753784 904.787231,602.551697 902.998352,604.531494 
	C894.511353,613.923828 886.140869,623.421509 877.659485,632.818909 
	C870.481506,640.771973 863.160156,648.595825 855.987549,656.553833 
	C841.454346,672.678467 826.989136,688.864319 812.474915,705.006104 
	C805.979431,712.230042 799.410522,719.388123 792.915405,726.612427 
	C778.401978,742.755005 763.895508,758.903931 749.425171,775.085083 
	C743.993225,781.159302 738.668945,787.329834 733.101074,793.678223 
	C738.373596,794.596313 742.567810,794.125305 746.001892,789.645020 
	C750.183594,784.189209 754.912659,779.146179 759.498779,774.008423 
	C768.371399,764.068420 777.311340,754.188538 786.220337,744.281067 
	C801.068848,727.768555 815.916748,711.255493 830.761230,694.739380 
	C839.556824,684.953369 848.303345,675.122925 857.146912,665.380554 
	C870.989075,650.131409 884.934387,634.975708 898.754395,619.706665 
	C904.342285,613.532959 909.715393,607.164917 915.247864,600.814575 
	C910.688171,595.881592 906.257385,591.217163 901.969482,586.424927 
	C888.382202,571.239685 874.880249,555.978210 861.280701,540.804077 
	C854.241638,532.950134 847.021484,525.258789 839.961792,517.423157 
	C825.431580,501.295837 810.964661,485.111572 796.450562,468.969696 
	C789.955078,461.745758 783.353516,454.616638 776.897156,447.358124 
	C764.128540,433.002777 751.450073,418.567322 738.690613,404.203766 
	C730.173340,394.615692 721.593323,385.083160 713.018982,375.546021 
	C697.949463,358.784515 682.900452,342.004425 667.770691,325.297516 
	C656.927673,313.324249 645.947388,301.475433 635.070068,289.533051 
	C631.645996,285.773712 628.387878,281.863831 625.000427,278.070496 
	C617.138916,269.266846 609.244751,260.492310 600.995911,251.295792 
	C596.304810,256.411102 591.976440,261.118439 587.662048,265.838531 
	C580.658630,273.500427 573.604309,281.116852 566.678955,288.848755 
	C553.083801,304.027313 539.595947,319.302002 525.997009,334.477173 
	C518.958679,342.331329 511.713623,350.000214 504.675110,357.854187 
	C491.075897,373.029022 477.556885,388.275696 463.499756,404.000610 
M861.000793,882.163757 
	C861.925964,886.620117 858.282959,886.862244 855.616150,888.458862 
	C865.227112,888.458862 874.838135,888.458862 885.030701,888.458862 
	C882.916748,887.026001 880.225281,886.080139 880.187805,885.038879 
	C879.856201,875.819763 879.995300,866.583740 879.995300,857.433838 
	C887.070435,856.960449 889.011414,858.715698 889.006958,864.780701 
	C889.005005,867.443420 888.908813,870.110107 889.019043,872.768188 
	C889.482117,883.930969 891.961548,887.902527 899.458923,889.676025 
	C911.040588,892.415710 918.045532,887.046875 916.801941,875.316101 
	C915.852173,876.763062 915.373047,877.614563 914.777283,878.374817 
	C913.588440,879.891968 912.335754,881.359070 911.109497,882.846863 
	C910.407349,880.940125 909.573425,879.068359 909.054688,877.112976 
	C908.765991,876.024475 908.956848,874.794739 909.009033,873.632080 
	C909.341858,866.218506 908.918457,859.163635 900.036987,855.930298 
	C909.402649,852.490295 911.223816,849.550110 911.046082,839.035217 
	C910.937500,832.612976 907.966125,828.388062 901.720215,826.548218 
	C898.734375,825.668640 895.543884,825.132996 892.435730,825.082764 
	C881.454773,824.905212 870.469238,824.982117 859.485718,825.026489 
	C858.028198,825.032349 856.572083,825.407227 855.115356,825.611145 
	C855.092773,826.134888 855.070251,826.658630 855.047729,827.182434 
	C856.922974,827.661194 858.798157,828.140015 861.001099,828.702515 
	C861.001099,846.331360 861.001099,863.782227 861.000793,882.163757 
M820.278748,872.629883 
	C821.182861,866.767212 822.952148,860.887817 822.839233,855.044800 
	C822.385498,831.572021 808.680969,821.720947 786.763306,824.281677 
	C779.304321,825.153198 772.555359,828.571899 767.995667,835.353821 
	C762.701843,843.227661 761.700562,851.902161 761.965210,861.034363 
	C762.354309,874.457336 768.647827,886.802551 784.193542,889.184021 
	C788.104248,889.783081 792.158325,890.217102 796.072388,889.876282 
	C807.068481,888.918884 815.753113,884.236755 820.278748,872.629883 
M306.444061,828.808228 
	C291.061920,838.288635 289.218506,868.358215 300.720856,881.160400 
	C309.100800,890.487244 320.098328,891.139282 331.557953,889.282471 
	C342.221344,887.554810 350.242615,881.688354 352.442230,871.188049 
	C354.172546,862.928223 354.103607,853.979004 353.113647,845.537720 
	C351.748322,833.895813 344.040375,826.816101 332.654785,824.560669 
	C323.832153,822.813049 315.083008,823.703247 306.444061,828.808228 
M450.016998,864.179565 
	C450.013306,860.183777 449.992767,856.187927 450.008942,852.192200 
	C450.059937,839.600403 443.676483,829.591309 433.238434,825.923340 
	C420.085052,821.301086 404.164917,824.698486 396.901093,833.677856 
	C387.889587,844.817505 386.782104,866.197021 394.559387,878.284729 
	C401.551331,889.151855 413.711548,891.614746 426.449646,889.525391 
	C440.947815,887.147400 447.400238,879.872620 450.016998,864.179565 
M971.500000,824.999939 
	C964.040100,824.999939 956.580261,824.999939 949.120361,824.999939 
	C949.076355,825.642212 949.032288,826.284485 948.988220,826.926758 
	C950.530579,827.518677 952.072876,828.110596 954.001953,828.850952 
	C954.001953,844.777100 954.037354,860.748657 953.978271,876.719910 
	C953.962585,880.964233 955.778992,886.144897 949.197021,888.282227 
	C965.685730,888.282227 982.174438,888.282227 998.761658,888.282227 
	C999.204956,881.596375 999.633972,875.125732 1000.063049,868.655090 
	C995.593445,872.783630 992.762756,877.632935 988.874756,881.387329 
	C984.735046,885.384583 979.284607,887.006531 973.312744,885.511414 
	C973.312744,876.238831 973.312744,867.341125 973.312744,858.491882 
	C982.517761,857.532837 983.817017,865.097778 987.421082,870.376343 
	C987.421082,861.415100 987.421082,852.453918 987.421082,843.492737 
	C983.779053,848.847168 981.543701,855.146423 973.388428,854.750366 
	C973.388428,845.729980 973.388428,837.029968 973.388428,828.429260 
	C986.296753,825.859314 991.179382,834.826172 996.344849,843.768555 
	C996.991943,838.514771 996.862183,833.739319 997.038757,828.975281 
	C997.151306,825.938416 996.051270,824.868225 992.996460,824.946045 
	C986.168274,825.120056 979.332642,825.000122 971.500000,824.999939 
M211.005280,833.798523 
	C211.005280,837.696228 211.005280,841.593872 211.005280,845.491577 
	C211.470581,845.614258 211.935867,845.736938 212.401169,845.859558 
	C215.317780,841.402466 217.796173,836.562561 221.266846,832.589478 
	C225.208359,828.077393 230.681396,827.071411 236.899551,828.545654 
	C228.196823,848.737366 218.429535,868.002563 210.273529,888.668762 
	C226.930527,888.668762 242.165329,888.668762 257.705261,888.668762 
	C258.085052,880.972473 258.447906,873.619263 258.810791,866.265991 
	C254.495956,870.948059 251.806381,876.087280 248.022888,880.226685 
	C244.056427,884.566345 238.652527,886.698364 231.725388,885.581177 
	C240.806046,865.337952 249.636551,845.652344 258.755005,825.324829 
	C242.385406,825.324829 227.479660,825.324829 212.548981,825.324829 
	C212.003677,828.044128 211.519485,830.458557 211.005280,833.798523 
M674.800659,825.011963 
	C673.876465,825.891479 672.244934,826.697510 672.144714,827.662659 
	C671.563660,833.256287 671.292603,838.885193 671.042969,844.507812 
	C670.991821,845.658752 671.478027,846.833557 671.982605,849.295532 
	C678.547607,841.855103 677.042114,829.071289 690.013489,827.979004 
	C690.013489,830.259521 690.013489,832.047180 690.013489,833.834839 
	C690.013489,848.820923 690.013794,863.807007 690.013306,878.793091 
	C690.013062,886.229919 690.011658,886.225037 683.000122,887.348938 
	C682.834717,887.375366 682.740723,887.847595 682.555115,888.232910 
	C693.691223,888.232910 704.749329,888.232910 715.807434,888.232910 
	C715.847595,887.732727 715.887756,887.232544 715.927917,886.732361 
	C713.820679,886.348267 711.713501,885.964111 709.346680,885.532654 
	C709.346680,866.433655 709.346680,847.420227 709.346680,827.610535 
	C721.273926,830.055786 720.898499,841.551208 726.233154,848.645508 
	C726.963501,842.153076 726.771912,835.923828 727.035156,829.713928 
	C727.193909,825.968445 725.926819,824.872314 722.200134,824.918335 
	C706.716858,825.109314 691.229858,824.999695 674.800659,825.011963 
M607.340332,827.361694 
	C614.496277,825.920105 619.969971,828.497498 624.195862,834.276855 
	C626.613159,837.582764 629.191650,840.770935 632.527588,845.085571 
	C632.527588,837.387756 632.527588,831.394836 632.527588,825.995544 
	C628.284180,825.613770 624.582520,825.270081 620.878784,824.950500 
	C617.091797,824.623657 613.293030,823.966858 609.516418,824.071472 
	C596.972595,824.418884 587.949646,836.946289 590.806763,849.190613 
	C592.708496,857.340149 598.291382,861.324524 605.472046,864.020203 
	C611.046875,866.113037 616.878601,867.766113 622.060730,870.595337 
	C627.825684,873.742676 627.706177,881.206665 622.371033,885.060486 
	C618.484863,887.867676 613.735474,888.305908 610.147034,885.825623 
	C604.957153,882.238281 600.582703,877.445740 595.992371,873.030151 
	C594.330566,871.431580 593.048889,869.437866 591.593811,867.624512 
	C590.981018,867.941345 590.368164,868.258179 589.755371,868.575012 
	C590.223755,875.555176 590.692139,882.535339 591.066895,888.119934 
	C596.942993,888.635437 602.069946,888.685364 607.037170,889.601501 
	C618.555237,891.725830 629.290405,888.337952 633.906494,880.022644 
	C640.112915,868.842468 638.745178,853.761353 621.667480,848.069946 
	C616.946655,846.496582 611.875549,845.669861 607.515564,843.429443 
	C604.800781,842.034485 602.142273,838.944763 601.209839,836.051270 
	C599.926758,832.069824 602.896484,829.291626 607.340332,827.361694 
M601.261597,938.967346 
	C596.924438,934.869263 591.824646,931.308838 588.454651,926.528809 
	C584.742432,921.263306 580.775513,918.759338 573.655579,920.494873 
	C582.772766,930.631592 591.688477,940.544250 600.924805,950.813354 
	C610.274414,940.372070 619.091614,930.525330 628.096802,920.468689 
	C622.267151,919.042297 618.142029,920.405762 614.616150,924.750061 
	C610.673035,929.608398 606.169556,934.011902 601.261597,938.967346 
M604.434753,926.042480 
	C606.284546,924.282593 608.134399,922.522766 610.502747,920.269653 
	C603.775696,920.269653 598.104919,920.269653 591.957153,920.269653 
	C595.130981,923.917236 597.955139,927.162903 601.044739,930.713623 
	C602.307861,928.916382 603.128784,927.748352 604.434753,926.042480 
z"/>
<path fill="#000000" opacity="1.000000" stroke="none" 
	d="
M831.260315,527.759155 
	C844.593384,542.753601 857.604736,557.557251 870.773254,572.219666 
	C879.374084,581.796204 888.202820,591.168091 897.109619,600.826965 
	C893.734131,604.715576 890.396423,608.716431 886.893555,612.567078 
	C876.025452,624.514099 865.042175,636.356567 854.200806,648.327698 
	C839.073364,665.031616 824.026550,681.808655 808.959656,698.567322 
	C800.386719,708.102966 791.808655,717.634338 783.292847,727.220825 
	C770.535645,741.582031 757.854675,756.010986 745.094177,770.369202 
	C738.752625,777.504761 732.422241,784.658569 725.812195,791.540344 
	C724.448120,792.960510 721.866821,793.897644 719.844910,793.900574 
	C640.697876,794.017273 561.550659,793.940857 482.403992,794.139221 
	C477.399994,794.151794 475.417877,790.899902 472.826355,788.192078 
	C468.761353,783.944641 465.237946,779.184631 461.284271,774.823792 
	C450.436310,762.859009 439.432800,751.035217 428.586212,739.069214 
	C416.768738,726.032104 405.061218,712.895386 393.300598,699.806763 
	C381.428772,686.594299 369.549500,673.388611 357.675537,660.177979 
	C345.801605,646.967468 333.902740,633.779114 322.069733,620.531982 
	C316.376770,614.158691 310.810303,607.672424 305.008301,601.033325 
	C307.681519,597.862732 310.406616,594.420593 313.350311,591.176880 
	C323.980377,579.463684 334.723358,567.853027 345.349304,556.136169 
	C357.505280,542.732361 369.587128,529.261230 381.691620,515.810730 
	C393.573639,502.607391 405.444763,489.394196 417.318665,476.183594 
	C429.192596,462.972992 441.067932,449.763702 452.935425,436.547272 
	C461.613770,426.882446 470.270233,417.198029 478.954224,407.538300 
	C493.909241,390.902985 508.881683,374.283325 523.839783,357.650757 
	C532.636780,347.868958 541.410217,338.066071 550.212097,328.288727 
	C562.430176,314.716583 574.698608,301.189636 586.875610,287.580780 
	C591.547119,282.359985 596.026123,276.966949 600.761658,271.455872 
	C607.772522,279.186249 614.410400,286.431488 620.959595,293.755981 
	C624.557068,297.779388 627.909607,302.023163 631.538513,306.016785 
	C642.399902,317.969513 653.392029,329.803497 664.241089,341.767334 
	C676.172913,354.925293 688.006775,368.172028 699.875000,381.387634 
	C708.553955,391.051849 717.203247,400.742737 725.894653,410.395721 
	C738.225159,424.090363 750.600037,437.745056 762.921692,451.447662 
	C771.273193,460.735168 779.539307,470.099304 787.890808,479.386749 
	C800.212463,493.089355 812.583618,506.747406 824.914246,520.441895 
	C826.994568,522.752380 828.977356,525.150696 831.260315,527.759155 
M556.964783,609.338257 
	C551.060303,622.011719 545.051514,634.637878 539.273560,647.368774 
	C528.059875,672.076355 516.885071,696.802673 505.924988,721.623230 
	C504.036865,725.899109 503.289612,730.678833 501.857758,735.788269 
	C567.775635,735.788269 632.198181,735.788269 697.292908,735.788269 
	C698.830933,704.881775 700.364258,674.069946 701.934387,642.517517 
	C698.658997,643.976807 694.719666,640.904785 693.087585,645.630981 
	C691.990601,648.807495 691.145691,652.073242 689.994812,655.228638 
	C682.359192,676.164856 670.618713,694.139954 652.699951,707.869629 
	C632.917358,723.027527 610.462341,727.586243 585.779053,725.703552 
	C586.250916,724.229797 586.509949,722.983459 587.033386,721.860291 
	C589.547974,716.465027 592.232056,711.147217 594.678101,705.721680 
	C606.819763,678.791382 618.907532,651.836853 631.010010,624.888977 
	C642.782654,598.675598 654.495972,572.435303 666.338074,546.253296 
	C675.008240,527.084229 683.900696,508.015594 692.573547,488.847656 
	C695.213196,483.013641 698.647949,477.254150 696.523743,470.215393 
	C634.153198,470.215393 571.739807,470.215393 509.014526,470.215393 
	C507.105988,498.157898 505.210602,525.907898 503.290161,554.024902 
	C506.885376,553.592834 510.737579,555.566223 512.976501,550.550232 
	C520.552612,533.576782 529.472412,517.306335 541.116150,502.763947 
	C547.470520,494.827759 555.423340,488.724823 565.129517,484.893127 
	C581.455017,478.448273 598.465515,478.995575 615.905273,479.016602 
	C596.213562,522.352539 576.628235,565.454407 556.964783,609.338257 
z"/>
<path fill="#000000" opacity="1.000000" stroke="none" 
	d="
M463.752197,403.746613 
	C477.556885,388.275696 491.075897,373.029022 504.675110,357.854187 
	C511.713623,350.000214 518.958679,342.331329 525.997009,334.477173 
	C539.595947,319.302002 553.083801,304.027313 566.678955,288.848755 
	C573.604309,281.116852 580.658630,273.500427 587.662048,265.838531 
	C591.976440,261.118439 596.304810,256.411102 600.995911,251.295792 
	C609.244751,260.492310 617.138916,269.266846 625.000427,278.070496 
	C628.387878,281.863831 631.645996,285.773712 635.070068,289.533051 
	C645.947388,301.475433 656.927673,313.324249 667.770691,325.297516 
	C682.900452,342.004425 697.949463,358.784515 713.018982,375.546021 
	C721.593323,385.083160 730.173340,394.615692 738.690613,404.203766 
	C751.450073,418.567322 764.128540,433.002777 776.897156,447.358124 
	C783.353516,454.616638 789.955078,461.745758 796.450562,468.969696 
	C810.964661,485.111572 825.431580,501.295837 839.961792,517.423157 
	C847.021484,525.258789 854.241638,532.950134 861.280701,540.804077 
	C874.880249,555.978210 888.382202,571.239685 901.969482,586.424927 
	C906.257385,591.217163 910.688171,595.881592 915.247864,600.814575 
	C909.715393,607.164917 904.342285,613.532959 898.754395,619.706665 
	C884.934387,634.975708 870.989075,650.131409 857.146912,665.380554 
	C848.303345,675.122925 839.556824,684.953369 830.761230,694.739380 
	C815.916748,711.255493 801.068848,727.768555 786.220337,744.281067 
	C777.311340,754.188538 768.371399,764.068420 759.498779,774.008423 
	C754.912659,779.146179 750.183594,784.189209 746.001892,789.645020 
	C742.567810,794.125305 738.373596,794.596313 733.101074,793.678223 
	C738.668945,787.329834 743.993225,781.159302 749.425171,775.085083 
	C763.895508,758.903931 778.401978,742.755005 792.915405,726.612427 
	C799.410522,719.388123 805.979431,712.230042 812.474915,705.006104 
	C826.989136,688.864319 841.454346,672.678467 855.987549,656.553833 
	C863.160156,648.595825 870.481506,640.771973 877.659485,632.818909 
	C886.140869,623.421509 894.511353,613.923828 902.998352,604.531494 
	C904.787231,602.551697 904.964478,600.753784 903.245178,598.743530 
	C899.309143,594.141479 895.481750,589.441284 891.422180,584.950989 
	C880.924194,573.339233 870.281860,561.858093 859.775574,550.253845 
	C844.536194,533.421753 829.353210,516.538513 814.170776,499.654938 
	C805.706421,490.242218 797.313354,480.765564 788.849976,471.352020 
	C776.638611,457.769867 764.385010,444.225739 752.163940,430.652313 
	C743.359863,420.873993 734.583008,411.071136 725.787292,401.285248 
	C710.942688,384.769348 696.093445,368.257660 681.244873,351.745331 
	C672.335754,341.837921 663.419800,331.936646 654.514893,322.025421 
	C642.752747,308.934113 630.973999,295.857513 619.250916,282.731232 
	C613.342407,276.115540 607.540955,269.404266 601.028442,261.980957 
	C596.760742,266.430206 592.765625,270.399750 588.999207,274.575623 
	C585.055969,278.947601 581.445557,283.620300 577.491150,287.981537 
	C566.640930,299.948029 555.628418,311.767395 544.787476,323.742157 
	C529.883667,340.204620 515.073792,356.752136 500.232910,373.271484 
	C491.550629,382.935730 482.897552,392.626221 474.211182,402.286804 
	C459.140747,419.047516 444.048859,435.788849 428.977570,452.548798 
	C420.290771,462.208862 411.597046,471.862976 402.959564,481.567078 
	C389.964966,496.166351 377.055511,510.841492 364.033569,525.416138 
	C357.006744,533.280823 349.759338,540.948181 342.720734,548.802551 
	C329.121826,563.977539 315.601135,579.222717 302.043365,594.434631 
	C301.600555,594.931458 301.104950,595.381042 300.638458,595.857117 
	C295.777222,600.817871 295.944000,600.995850 300.535858,606.105896 
	C313.710541,620.767395 326.705505,635.590210 339.831909,650.295288 
	C346.522552,657.790466 353.388733,665.128784 360.096436,672.609009 
	C374.033600,688.151245 387.899017,703.757812 401.832458,719.303467 
	C408.427307,726.661438 415.142822,733.911194 421.747681,741.260254 
	C436.147003,757.282104 450.498657,773.346802 464.909943,789.357849 
	C466.112640,790.694031 467.617859,791.757935 469.797882,793.659729 
	C463.872162,794.263367 459.958893,794.393799 456.093262,789.865417 
	C442.435516,773.865540 428.207214,758.351807 414.158264,742.687012 
	C407.561066,735.331116 400.847900,728.079224 394.242645,720.730469 
	C379.842651,704.709595 365.494690,688.641907 351.091766,672.623657 
	C344.373840,665.152283 337.552765,657.773743 330.821930,650.313904 
	C316.169464,634.074341 301.544861,617.809692 286.575378,601.184937 
	C291.221191,595.772888 295.655579,590.373840 300.338135,585.199280 
	C311.176697,573.222168 322.189819,561.402954 333.032196,549.429199 
	C348.049316,532.844910 362.980286,516.182617 377.937164,499.543793 
	C386.622253,489.882111 395.275970,480.192230 403.961395,470.530853 
	C418.918915,453.892731 433.904846,437.280060 448.847504,420.628571 
	C453.781311,415.130554 458.618439,409.545746 463.752197,403.746613 
z"/>
<path fill="#C1C5BC" opacity="1.000000" stroke="none" 
	d="
M531.073975,840.024414 
	C527.585083,855.203979 524.085266,870.381042 520.618530,885.565674 
	C520.066467,887.983765 518.922791,889.141235 516.181458,889.057922 
	C505.259430,888.725830 507.938141,890.510559 505.132599,880.601685 
	C500.853790,865.489380 496.861725,850.295837 492.239563,835.210938 
	C492.239563,852.198853 492.239563,869.186829 492.239563,886.448608 
	C493.728210,886.806641 495.112183,887.139465 496.496124,887.472351 
	C496.491577,887.763977 496.487061,888.055664 496.482513,888.347290 
	C492.539642,888.347290 488.596802,888.347290 484.653931,888.347290 
	C489.203217,887.067139 489.078033,883.651489 489.047821,879.885437 
	C488.911560,862.917603 488.988403,845.948059 488.988403,828.905457 
	C487.179443,828.229370 485.625671,827.648682 483.855530,826.987122 
	C484.386017,826.146973 484.624725,825.424438 484.876923,825.419617 
	C492.510834,825.276001 500.149475,825.081238 507.776245,825.293640 
	C508.609741,825.316895 509.734436,827.652588 510.117828,829.078613 
	C513.601562,842.036499 516.950378,855.030701 520.704651,869.416443 
	C523.330078,858.389893 525.901550,848.684631 527.916199,838.865173 
	C530.753662,825.035217 530.577148,824.999023 544.502014,824.999023 
	C548.129578,824.999023 551.757141,824.999023 555.299133,824.999023 
	C555.420715,825.834473 555.542358,826.414001 555.501526,826.425659 
	C549.787537,828.060669 551.055237,832.713928 551.049500,836.764832 
	C551.026489,853.077698 551.040039,869.390503 551.040039,885.962769 
	C552.610657,886.521484 554.073669,887.041870 555.536743,887.562317 
	C555.520325,887.831604 555.503906,888.100952 555.487488,888.370239 
	C546.529480,888.370239 537.571472,888.370239 528.613464,888.370239 
	C533.125793,886.681885 533.066223,883.094177 533.012878,879.188660 
	C532.837830,866.382751 532.897156,853.573669 532.912415,840.012573 
	C532.958435,837.863708 532.958435,836.468140 532.958435,835.072510 
	C532.750854,835.041504 532.543213,835.010498 532.335632,834.979492 
	C531.915039,836.661133 531.494507,838.342773 531.073975,840.024414 
z"/>
<path fill="#C2C5BD" opacity="1.000000" stroke="none" 
	d="
M861.000977,881.698364 
	C861.001099,863.782227 861.001099,846.331360 861.001099,828.702515 
	C858.798157,828.140015 856.922974,827.661194 855.047729,827.182434 
	C855.070251,826.658630 855.092773,826.134888 855.115356,825.611145 
	C856.572083,825.407227 858.028198,825.032349 859.485718,825.026489 
	C870.469238,824.982117 881.454773,824.905212 892.435730,825.082764 
	C895.543884,825.132996 898.734375,825.668640 901.720215,826.548218 
	C907.966125,828.388062 910.937500,832.612976 911.046082,839.035217 
	C911.223816,849.550110 909.402649,852.490295 900.036987,855.930298 
	C908.918457,859.163635 909.341858,866.218506 909.009033,873.632080 
	C908.956848,874.794739 908.765991,876.024475 909.054688,877.112976 
	C909.573425,879.068359 910.407349,880.940125 911.109497,882.846863 
	C912.335754,881.359070 913.588440,879.891968 914.777283,878.374817 
	C915.373047,877.614563 915.852173,876.763062 916.801941,875.316101 
	C918.045532,887.046875 911.040588,892.415710 899.458923,889.676025 
	C891.961548,887.902527 889.482117,883.930969 889.019043,872.768188 
	C888.908813,870.110107 889.005005,867.443420 889.006958,864.780701 
	C889.011414,858.715698 887.070435,856.960449 879.995300,857.433838 
	C879.995300,866.583740 879.856201,875.819763 880.187805,885.038879 
	C880.225281,886.080139 882.916748,887.026001 885.030701,888.458862 
	C874.838135,888.458862 865.227112,888.458862 855.616150,888.458862 
	C858.282959,886.862244 861.925964,886.620117 861.000977,881.698364 
M891.002747,847.170837 
	C890.710632,841.847900 890.907532,836.435669 889.957947,831.232727 
	C889.303162,827.644897 885.539246,827.678345 882.533142,828.047668 
	C881.604431,828.161743 880.109192,829.483032 880.090088,830.280762 
	C879.904846,838.008850 879.978882,845.743164 879.978882,853.418701 
	C885.904846,855.158813 889.101501,852.901245 891.002747,847.170837 
z"/>
<path fill="#C2C6BD" opacity="1.000000" stroke="none" 
	d="
M820.162781,872.999268 
	C815.753113,884.236755 807.068481,888.918884 796.072388,889.876282 
	C792.158325,890.217102 788.104248,889.783081 784.193542,889.184021 
	C768.647827,886.802551 762.354309,874.457336 761.965210,861.034363 
	C761.700562,851.902161 762.701843,843.227661 767.995667,835.353821 
	C772.555359,828.571899 779.304321,825.153198 786.763306,824.281677 
	C808.680969,821.720947 822.385498,831.572021 822.839233,855.044800 
	C822.952148,860.887817 821.182861,866.767212 820.162781,872.999268 
M787.667908,827.763733 
	C786.200195,829.653687 783.723083,831.404907 783.440918,833.457825 
	C782.274109,841.947632 781.307190,850.521606 781.173706,859.078796 
	C781.068909,865.798218 781.812500,872.631104 783.079529,879.240967 
	C784.156982,884.861938 787.950378,887.211670 793.069946,886.999451 
	C797.751831,886.805359 801.608093,884.086243 801.876404,878.554688 
	C802.550232,864.665344 803.144348,850.673096 802.159546,836.836792 
	C801.495422,827.506226 798.039551,826.099731 787.667908,827.763733 
z"/>
<path fill="#C2C6BD" opacity="1.000000" stroke="none" 
	d="
M306.763794,828.625244 
	C315.083008,823.703247 323.832153,822.813049 332.654785,824.560669 
	C344.040375,826.816101 351.748322,833.895813 353.113647,845.537720 
	C354.103607,853.979004 354.172546,862.928223 352.442230,871.188049 
	C350.242615,881.688354 342.221344,887.554810 331.557953,889.282471 
	C320.098328,891.139282 309.100800,890.487244 300.720856,881.160400 
	C289.218506,868.358215 291.061920,838.288635 306.763794,828.625244 
M314.715973,879.492188 
	C316.984253,885.751221 319.809143,887.660889 325.795532,886.982178 
	C330.365875,886.463989 333.723114,882.701538 333.949890,877.137695 
	C334.429535,865.371338 334.809631,853.595825 334.892059,841.821716 
	C334.913513,838.754639 334.414185,835.215698 332.831970,832.737549 
	C331.258179,830.272583 328.200439,827.623169 325.480621,827.232483 
	C317.081818,826.026245 314.073395,830.144165 313.346069,840.469238 
	C312.453735,853.137146 313.947815,865.973145 314.715973,879.492188 
z"/>
<path fill="#C2C6BD" opacity="1.000000" stroke="none" 
	d="
M450.009766,864.637207 
	C447.400238,879.872620 440.947815,887.147400 426.449646,889.525391 
	C413.711548,891.614746 401.551331,889.151855 394.559387,878.284729 
	C386.782104,866.197021 387.889587,844.817505 396.901093,833.677856 
	C404.164917,824.698486 420.085052,821.301086 433.238434,825.923340 
	C443.676483,829.591309 450.059937,839.600403 450.008942,852.192200 
	C449.992767,856.187927 450.013306,860.183777 450.009766,864.637207 
M409.000061,848.540405 
	C409.541016,858.781250 409.536591,869.091248 410.822357,879.237732 
	C411.625916,885.578918 415.430328,887.545105 421.530762,886.989990 
	C426.189636,886.566040 429.698456,882.904785 429.933044,877.418213 
	C430.442627,865.500916 430.805450,853.571960 430.886566,841.645447 
	C430.907349,838.584106 429.957855,835.407471 428.917725,832.473999 
	C427.465088,828.377258 424.140533,826.904297 419.863831,826.935120 
	C415.724060,826.964966 412.421906,828.506226 411.416748,832.495911 
	C410.179260,837.407898 409.768555,842.528198 409.000061,848.540405 
z"/>
<path fill="#C1C5BC" opacity="1.000000" stroke="none" 
	d="
M972.000000,825.000000 
	C979.332642,825.000122 986.168274,825.120056 992.996460,824.946045 
	C996.051270,824.868225 997.151306,825.938416 997.038757,828.975281 
	C996.862183,833.739319 996.991943,838.514771 996.344849,843.768555 
	C991.179382,834.826172 986.296753,825.859314 973.388428,828.429260 
	C973.388428,837.029968 973.388428,845.729980 973.388428,854.750366 
	C981.543701,855.146423 983.779053,848.847168 987.421082,843.492737 
	C987.421082,852.453918 987.421082,861.415100 987.421082,870.376343 
	C983.817017,865.097778 982.517761,857.532837 973.312744,858.491882 
	C973.312744,867.341125 973.312744,876.238831 973.312744,885.511414 
	C979.284607,887.006531 984.735046,885.384583 988.874756,881.387329 
	C992.762756,877.632935 995.593445,872.783630 1000.063049,868.655090 
	C999.633972,875.125732 999.204956,881.596375 998.761658,888.282227 
	C982.174438,888.282227 965.685730,888.282227 949.197021,888.282227 
	C955.778992,886.144897 953.962585,880.964233 953.978271,876.719910 
	C954.037354,860.748657 954.001953,844.777100 954.001953,828.850952 
	C952.072876,828.110596 950.530579,827.518677 948.988220,826.926758 
	C949.032288,826.284485 949.076355,825.642212 949.120361,824.999939 
	C956.580261,824.999939 964.040100,824.999939 972.000000,825.000000 
z"/>
<path fill="#C2C6BD" opacity="1.000000" stroke="none" 
	d="
M211.020294,833.335815 
	C211.519485,830.458557 212.003677,828.044128 212.548981,825.324829 
	C227.479660,825.324829 242.385406,825.324829 258.755005,825.324829 
	C249.636551,845.652344 240.806046,865.337952 231.725388,885.581177 
	C238.652527,886.698364 244.056427,884.566345 248.022888,880.226685 
	C251.806381,876.087280 254.495956,870.948059 258.810791,866.265991 
	C258.447906,873.619263 258.085052,880.972473 257.705261,888.668762 
	C242.165329,888.668762 226.930527,888.668762 210.273529,888.668762 
	C218.429535,868.002563 228.196823,848.737366 236.899551,828.545654 
	C230.681396,827.071411 225.208359,828.077393 221.266846,832.589478 
	C217.796173,836.562561 215.317780,841.402466 212.401169,845.859558 
	C211.935867,845.736938 211.470581,845.614258 211.005280,845.491577 
	C211.005280,841.593872 211.005280,837.696228 211.020294,833.335815 
z"/>
<path fill="#C2C6BD" opacity="1.000000" stroke="none" 
	d="
M675.272461,825.006165 
	C691.229858,824.999695 706.716858,825.109314 722.200134,824.918335 
	C725.926819,824.872314 727.193909,825.968445 727.035156,829.713928 
	C726.771912,835.923828 726.963501,842.153076 726.233154,848.645508 
	C720.898499,841.551208 721.273926,830.055786 709.346680,827.610535 
	C709.346680,847.420227 709.346680,866.433655 709.346680,885.532654 
	C711.713501,885.964111 713.820679,886.348267 715.927917,886.732361 
	C715.887756,887.232544 715.847595,887.732727 715.807434,888.232910 
	C704.749329,888.232910 693.691223,888.232910 682.555115,888.232910 
	C682.740723,887.847595 682.834717,887.375366 683.000122,887.348938 
	C690.011658,886.225037 690.013062,886.229919 690.013306,878.793091 
	C690.013794,863.807007 690.013489,848.820923 690.013489,833.834839 
	C690.013489,832.047180 690.013489,830.259521 690.013489,827.979004 
	C677.042114,829.071289 678.547607,841.855103 671.982605,849.295532 
	C671.478027,846.833557 670.991821,845.658752 671.042969,844.507812 
	C671.292603,838.885193 671.563660,833.256287 672.144714,827.662659 
	C672.244934,826.697510 673.876465,825.891479 675.272461,825.006165 
z"/>
<path fill="#C2C6BD" opacity="1.000000" stroke="none" 
	d="
M606.971802,827.535645 
	C602.896484,829.291626 599.926758,832.069824 601.209839,836.051270 
	C602.142273,838.944763 604.800781,842.034485 607.515564,843.429443 
	C611.875549,845.669861 616.946655,846.496582 621.667480,848.069946 
	C638.745178,853.761353 640.112915,868.842468 633.906494,880.022644 
	C629.290405,888.337952 618.555237,891.725830 607.037170,889.601501 
	C602.069946,888.685364 596.942993,888.635437 591.066895,888.119934 
	C590.692139,882.535339 590.223755,875.555176 589.755371,868.575012 
	C590.368164,868.258179 590.981018,867.941345 591.593811,867.624512 
	C593.048889,869.437866 594.330566,871.431580 595.992371,873.030151 
	C600.582703,877.445740 604.957153,882.238281 610.147034,885.825623 
	C613.735474,888.305908 618.484863,887.867676 622.371033,885.060486 
	C627.706177,881.206665 627.825684,873.742676 622.060730,870.595337 
	C616.878601,867.766113 611.046875,866.113037 605.472046,864.020203 
	C598.291382,861.324524 592.708496,857.340149 590.806763,849.190613 
	C587.949646,836.946289 596.972595,824.418884 609.516418,824.071472 
	C613.293030,823.966858 617.091797,824.623657 620.878784,824.950500 
	C624.582520,825.270081 628.284180,825.613770 632.527588,825.995544 
	C632.527588,831.394836 632.527588,837.387756 632.527588,845.085571 
	C629.191650,840.770935 626.613159,837.582764 624.195862,834.276855 
	C619.969971,828.497498 614.496277,825.920105 606.971802,827.535645 
z"/>
<path fill="#000000" opacity="1.000000" stroke="none" 
	d="
M601.585754,938.790344 
	C606.169556,934.011902 610.673035,929.608398 614.616150,924.750061 
	C618.142029,920.405762 622.267151,919.042297 628.096802,920.468689 
	C619.091614,930.525330 610.274414,940.372070 600.924805,950.813354 
	C591.688477,940.544250 582.772766,930.631592 573.655579,920.494873 
	C580.775513,918.759338 584.742432,921.263306 588.454651,926.528809 
	C591.824646,931.308838 596.924438,934.869263 601.585754,938.790344 
z"/>
<path fill="#000000" opacity="1.000000" stroke="none" 
	d="
M604.192200,926.311401 
	C603.128784,927.748352 602.307861,928.916382 601.044739,930.713623 
	C597.955139,927.162903 595.130981,923.917236 591.957153,920.269653 
	C598.104919,920.269653 603.775696,920.269653 610.502747,920.269653 
	C608.134399,922.522766 606.284546,924.282593 604.192200,926.311401 
z"/>
<path fill="#EAECE6" opacity="1.000000" stroke="none" 
	d="
M531.373169,840.017517 
	C531.494507,838.342773 531.915039,836.661133 532.335632,834.979492 
	C532.543213,835.010498 532.750854,835.041504 532.958435,835.072510 
	C532.958435,836.468140 532.958435,837.863708 532.912598,839.649414 
	C532.468689,840.029846 532.070557,840.020264 531.373169,840.017517 
z"/>
<path fill="#F5F7F1" opacity="1.000000" stroke="none" 
	d="
M557.003784,608.947266 
	C576.628235,565.454407 596.213562,522.352539 615.905273,479.016602 
	C598.465515,478.995575 581.455017,478.448273 565.129517,484.893127 
	C555.423340,488.724823 547.470520,494.827759 541.116150,502.763947 
	C529.472412,517.306335 520.552612,533.576782 512.976501,550.550232 
	C510.737579,555.566223 506.885376,553.592834 503.290161,554.024902 
	C505.210602,525.907898 507.105988,498.157898 509.014526,470.215393 
	C571.739807,470.215393 634.153198,470.215393 696.523743,470.215393 
	C698.647949,477.254150 695.213196,483.013641 692.573547,488.847656 
	C683.900696,508.015594 675.008240,527.084229 666.338074,546.253296 
	C654.495972,572.435303 642.782654,598.675598 631.010010,624.888977 
	C618.907532,651.836853 606.819763,678.791382 594.678101,705.721680 
	C592.232056,711.147217 589.547974,716.465027 587.033386,721.860291 
	C586.509949,722.983459 586.250916,724.229797 585.779053,725.703552 
	C610.462341,727.586243 632.917358,723.027527 652.699951,707.869629 
	C670.618713,694.139954 682.359192,676.164856 689.994812,655.228638 
	C691.145691,652.073242 691.990601,648.807495 693.087585,645.630981 
	C694.719666,640.904785 698.658997,643.976807 701.934387,642.517517 
	C700.364258,674.069946 698.830933,704.881775 697.292908,735.788269 
	C632.198181,735.788269 567.775635,735.788269 501.857758,735.788269 
	C503.289612,730.678833 504.036865,725.899109 505.924988,721.623230 
	C516.885071,696.802673 528.059875,672.076355 539.273560,647.368774 
	C545.051514,634.637878 551.060303,622.011719 557.003784,608.947266 
z"/>
<path fill="#F4F6F0" opacity="1.000000" stroke="none" 
	d="
M890.936768,847.571045 
	C889.101501,852.901245 885.904846,855.158813 879.978882,853.418701 
	C879.978882,845.743164 879.904846,838.008850 880.090088,830.280762 
	C880.109192,829.483032 881.604431,828.161743 882.533142,828.047668 
	C885.539246,827.678345 889.303162,827.644897 889.957947,831.232727 
	C890.907532,836.435669 890.710632,841.847900 890.936768,847.571045 
z"/>
<path fill="#F5F7F1" opacity="1.000000" stroke="none" 
	d="
M788.033203,827.583618 
	C798.039551,826.099731 801.495422,827.506226 802.159546,836.836792 
	C803.144348,850.673096 802.550232,864.665344 801.876404,878.554688 
	C801.608093,884.086243 797.751831,886.805359 793.069946,886.999451 
	C787.950378,887.211670 784.156982,884.861938 783.079529,879.240967 
	C781.812500,872.631104 781.068909,865.798218 781.173706,859.078796 
	C781.307190,850.521606 782.274109,841.947632 783.440918,833.457825 
	C783.723083,831.404907 786.200195,829.653687 788.033203,827.583618 
z"/>
<path fill="#F5F7F1" opacity="1.000000" stroke="none" 
	d="
M314.563110,879.114380 
	C313.947815,865.973145 312.453735,853.137146 313.346069,840.469238 
	C314.073395,830.144165 317.081818,826.026245 325.480621,827.232483 
	C328.200439,827.623169 331.258179,830.272583 332.831970,832.737549 
	C334.414185,835.215698 334.913513,838.754639 334.892059,841.821716 
	C334.809631,853.595825 334.429535,865.371338 333.949890,877.137695 
	C333.723114,882.701538 330.365875,886.463989 325.795532,886.982178 
	C319.809143,887.660889 316.984253,885.751221 314.563110,879.114380 
z"/>
<path fill="#F5F7F1" opacity="1.000000" stroke="none" 
	d="
M409.000305,848.049438 
	C409.768555,842.528198 410.179260,837.407898 411.416748,832.495911 
	C412.421906,828.506226 415.724060,826.964966 419.863831,826.935120 
	C424.140533,826.904297 427.465088,828.377258 428.917725,832.473999 
	C429.957855,835.407471 430.907349,838.584106 430.886566,841.645447 
	C430.805450,853.571960 430.442627,865.500916 429.933044,877.418213 
	C429.698456,882.904785 426.189636,886.566040 421.530762,886.989990 
	C415.430328,887.545105 411.625916,885.578918 410.822357,879.237732 
	C409.536591,869.091248 409.541016,858.781250 409.000305,848.049438 
z"/>
</svg>