<svg version="1.1" id="Layer_1" xmlns="http://www.w3.org/2000/svg" xmlns:xlink="http://www.w3.org/1999/xlink" x="0px" y="0px"
	 width="100%" viewBox="0 0 1108 325" enable-background="new 0 0 1108 325" xml:space="preserve">
<path fill="#FFFEFE" opacity="1.000000" stroke="none" 
	d="
M707.000000,326.000000 
	C472.874084,326.000000 239.248138,325.991638 5.622244,326.079041 
	C2.099775,326.080353 0.882419,325.646729 0.887815,321.623627 
	C1.029310,216.142227 1.027746,110.660530 0.887772,5.179112 
	C0.882730,1.379214 1.904984,0.918755 5.319573,0.919553 
	C371.755646,1.005282 738.191711,1.008555 1104.627808,0.889430 
	C1108.658447,0.888119 1109.082886,2.110143 1109.079590,5.626368 
	C1108.981689,110.941246 1108.973145,216.256256 1109.105713,321.571075 
	C1109.110596,325.481262 1108.049805,326.089050 1104.430298,326.086243 
	C972.120300,325.983673 839.810120,326.000000 707.000000,326.000000 
z"/>
<path fill="#050505" opacity="1.000000" stroke="none" 
	d="
M544.616577,116.164230 
	C554.141541,98.428001 565.420532,82.488388 581.289490,70.226097 
	C586.344299,66.320099 591.867004,63.302799 598.262817,62.240562 
	C607.153992,60.763889 612.765198,64.798363 614.235779,73.664185 
	C615.794189,83.059975 613.634277,92.233810 612.484680,101.456635 
	C609.789795,123.076904 605.436890,144.481735 603.998291,166.262680 
	C603.786621,169.467438 602.749207,173.491455 606.484009,175.212967 
	C610.025269,176.845215 612.739075,173.859985 615.161804,171.729141 
	C620.590027,166.954834 624.743286,161.157913 628.056885,154.726135 
	C628.637451,153.599136 628.583313,151.223663 630.724487,151.891510 
	C632.556641,152.462967 633.573059,154.171463 633.505371,156.218597 
	C633.414978,158.952301 632.328979,161.381714 630.988098,163.706299 
	C628.042908,168.812164 623.965088,172.978226 619.675293,177.734772 
	C619.392395,178.538757 619.270874,178.708771 618.934692,179.107574 
	C618.271179,179.777893 617.807800,180.204910 617.163208,180.906677 
	C616.797546,181.304031 616.647705,181.461594 616.262512,181.850342 
	C615.862732,182.230789 615.698181,182.380066 615.275024,182.743195 
	C612.523743,184.497238 610.372681,186.582718 607.242432,187.725189 
	C604.528687,188.956085 602.225464,190.343933 599.735840,191.169357 
	C591.048523,194.049561 584.743408,189.942642 584.019165,180.840744 
	C583.167236,170.135040 584.923584,159.572769 586.417847,149.035294 
	C588.939331,131.254120 591.845276,113.526733 593.708801,95.656204 
	C593.846619,94.334534 593.874451,92.996735 593.876648,91.666306 
	C593.894165,80.783653 588.362549,77.416054 578.861511,82.592545 
	C575.028198,84.681061 571.745605,87.538612 568.920654,90.840080 
	C551.168335,111.586586 539.382324,134.890747 537.953979,162.713974 
	C537.630371,169.017670 536.518188,175.277466 535.990479,181.576019 
	C535.817322,183.641876 534.757751,184.408630 533.104065,185.070206 
	C527.572998,187.283020 522.072693,189.572556 515.778748,192.153244 
	C516.714783,182.936996 517.537659,174.278778 518.483154,165.633957 
	C520.997070,142.647263 523.626038,119.672913 526.047424,96.676605 
	C526.443726,92.912933 526.528625,89.020119 525.065857,85.334862 
	C523.399414,81.136139 520.518555,79.553741 516.002258,80.620605 
	C509.999542,82.038612 505.531952,85.796951 501.749512,90.220901 
	C484.505035,110.390068 472.516724,132.929459 470.859039,160.057983 
	C470.443359,166.860382 469.392975,173.621872 468.796722,180.416412 
	C468.566315,183.041748 467.610626,184.482254 464.953583,185.414261 
	C459.499634,187.327316 454.220795,189.739624 448.255859,192.199631 
	C449.697296,179.016525 451.095245,166.376801 452.458191,153.733322 
	C454.669708,133.217575 456.867920,112.700378 459.038544,92.180267 
	C459.213074,90.530212 459.191498,88.851616 459.153992,87.188705 
	C459.094025,84.530434 459.335785,81.492973 456.538422,80.112030 
	C453.461609,78.593117 450.724579,80.356194 448.315247,82.189934 
	C441.642181,87.268791 437.946106,94.620056 433.805298,101.777725 
	C429.800049,99.437057 429.880646,95.960953 431.633972,92.809059 
	C439.202850,79.202499 449.848694,68.624580 464.400024,62.778374 
	C471.896759,59.766460 478.037933,64.015228 479.114380,72.027809 
	C480.393616,81.550018 478.297363,90.930229 477.518860,100.360687 
	C477.164154,104.657738 476.524597,108.931274 475.855286,114.549812 
	C479.722229,108.709923 482.806183,103.884239 486.058502,99.174812 
	C493.465118,88.449898 501.564758,78.328239 512.104675,70.444839 
	C517.636108,66.307518 523.705017,63.310223 530.606262,62.232437 
	C539.543701,60.836647 544.606323,64.497917 546.181885,73.409210 
	C547.930481,83.299637 545.168762,92.949112 544.633118,102.716164 
	C544.405762,106.861649 543.679504,110.979767 543.173584,115.523621 
	C543.468750,116.385643 543.675293,117.088852 544.616577,116.164230 
z"/>
<path fill="#AB7D62" opacity="1.000000" stroke="none" 
	d="
M754.994019,198.751160 
	C752.764099,188.697739 754.427856,179.071259 755.359558,169.505203 
	C757.213562,150.470734 759.459351,131.473343 761.690063,112.477859 
	C762.032349,109.563171 760.902588,109.078453 758.434631,109.111420 
	C751.479370,109.204315 744.522095,109.143867 736.515320,109.143867 
	C741.432556,104.156334 745.422546,99.582542 749.990662,95.686554 
	C752.464966,93.576363 756.131470,94.862541 759.226746,94.931717 
	C762.571533,95.006470 764.213135,94.073318 764.042847,90.480850 
	C763.957642,88.684402 764.506592,86.861397 764.733337,85.045982 
	C765.263672,80.801025 763.983459,75.152946 767.037048,72.709579 
	C770.826721,69.677223 776.528687,69.045151 781.391846,67.339752 
	C783.971802,66.435043 784.223572,67.854202 784.022095,69.841835 
	C783.334167,76.627625 782.838013,83.439240 781.911560,90.192009 
	C781.374084,94.109703 782.754395,94.942612 786.456177,94.923004 
	C813.608215,94.779160 840.761658,94.795647 867.914062,94.902176 
	C871.382996,94.915787 874.411926,93.583153 877.611938,92.794655 
	C897.705139,87.843590 911.791565,97.776558 914.067322,118.333328 
	C917.123474,145.939163 906.844482,168.819733 889.303711,189.146805 
	C881.724365,197.930237 873.131287,205.476913 861.954895,209.466705 
	C856.396912,211.450806 850.648621,212.363022 844.773193,211.721939 
	C830.699890,210.186447 822.534424,200.500351 820.911438,184.790497 
	C818.226746,158.802628 826.767883,136.702820 843.297546,117.166733 
	C845.325623,114.769768 847.411072,112.421387 849.467896,110.052780 
	C848.306641,108.460175 846.868103,109.176956 845.677307,109.174225 
	C825.521057,109.127968 805.363037,109.276093 785.209595,109.032066 
	C781.210144,108.983650 779.615784,110.077103 779.218811,114.007248 
	C776.961792,136.351349 774.523499,158.677109 772.242859,181.018906 
	C771.957886,183.809769 772.101379,186.631592 772.716064,189.456818 
	C774.464844,197.495270 780.207153,200.350296 787.625610,196.526642 
	C792.946533,193.784149 796.636902,189.237717 800.183167,184.573517 
	C800.853394,183.692062 801.351624,182.096924 802.675537,182.487991 
	C804.134583,182.918961 804.061401,184.562576 804.142090,185.898849 
	C804.267639,187.977554 803.735962,189.920441 802.551208,191.571320 
	C795.859558,200.895950 787.277649,207.927567 776.176147,211.063950 
	C765.697510,214.024353 758.448364,209.604263 754.994019,198.751160 
z"/>
<path fill="#AB7D62" opacity="1.000000" stroke="none" 
	d="
M607.238770,187.987213 
	C608.597412,185.098434 611.779114,184.249283 614.289062,182.076630 
	C614.979431,181.856476 615.319458,181.658447 615.807007,181.158966 
	C615.992981,180.925262 615.971680,180.992203 615.945190,180.969147 
	C616.819275,180.398117 617.866089,180.095444 618.859131,179.102448 
	C619.222656,178.719269 619.362671,178.561020 619.665161,178.130524 
	C619.827576,177.858307 619.698425,177.867783 619.666748,177.811890 
	C621.507019,179.196976 622.834290,177.526917 623.994812,176.690598 
	C626.973267,174.544098 628.409607,174.174957 629.484375,178.633286 
	C634.650635,200.064728 652.116516,206.656509 672.436035,203.397812 
	C687.722534,200.946259 696.818420,191.856674 698.559692,177.894562 
	C699.811646,167.856018 695.484436,159.392426 689.339172,151.798248 
	C680.863464,141.324203 669.521606,134.059158 659.456116,125.368095 
	C654.412048,121.012817 649.539734,116.488449 644.653564,111.961349 
	C625.852173,94.541656 630.682739,66.135811 648.635071,52.432533 
	C668.695129,37.120453 690.963196,36.251179 714.096191,43.407532 
	C726.532532,47.254803 726.447388,47.590309 721.407898,59.461468 
	C719.457397,64.056206 717.425537,68.616631 715.405945,73.181709 
	C714.588867,75.028694 713.535339,76.738449 711.808044,77.872177 
	C710.296509,78.864304 708.713257,78.944107 707.114868,77.955566 
	C705.426025,76.911102 706.407288,75.599136 706.789124,74.435081 
	C710.645996,62.677509 705.098572,55.782768 693.801270,51.479759 
	C684.667175,48.000706 675.145935,47.966694 665.780212,50.321812 
	C651.645752,53.876080 645.286926,69.637970 652.300476,83.143005 
	C655.023987,88.387520 658.933960,92.725700 663.374390,96.555031 
	C675.979675,107.425690 688.971436,117.871880 701.216003,129.132248 
	C727.266174,153.088638 719.198608,186.235687 693.425781,202.208450 
	C675.068604,213.585297 655.160583,216.080276 634.362793,211.487137 
	C621.404663,208.625397 612.796997,200.176834 607.238770,187.987213 
z"/>
<path fill="#050505" opacity="1.000000" stroke="none" 
	d="
M253.487717,185.496597 
	C246.361206,189.336380 239.237640,191.926559 231.385300,192.008911 
	C213.630051,192.195068 203.548859,183.446976 200.951691,165.780365 
	C196.717697,136.979584 206.303467,112.421120 224.056992,90.407806 
	C233.794449,78.333954 244.812805,67.879005 260.332153,63.566280 
	C265.520477,62.124485 270.806915,61.537640 276.149445,62.235477 
	C290.656006,64.130325 299.013885,73.808701 301.061554,90.273857 
	C304.212708,115.611847 296.667633,137.889374 282.001984,158.141312 
	C274.243835,168.854660 265.430878,178.562897 253.487717,185.496597 
z"/>
<path fill="#050505" opacity="1.000000" stroke="none" 
	d="
M316.045715,146.218506 
	C319.577759,114.473900 335.361786,90.350716 359.756195,71.417694 
	C365.691223,66.811386 372.619843,63.959805 380.181061,62.708889 
	C401.020355,59.261280 414.873138,69.324966 416.889160,90.291779 
	C420.754395,130.490494 402.855713,160.541443 371.801788,183.914276 
	C364.120117,189.695923 354.902130,192.185699 345.070862,192.043823 
	C331.090790,191.842087 321.880951,184.957611 318.077087,171.441498 
	C315.794586,163.331207 315.714233,155.024002 316.045715,146.218506 
z"/>
<path fill="#060606" opacity="1.000000" stroke="none" 
	d="
M160.091995,83.492271 
	C148.533218,83.470032 137.840271,80.400330 127.169991,77.216988 
	C126.057274,76.885025 124.981247,76.406326 123.852692,76.155403 
	C119.611809,75.212463 115.184456,73.989723 111.642998,77.638458 
	C107.932640,81.461197 108.529823,86.132874 109.875999,90.760704 
	C110.321724,92.293015 111.332413,93.640793 109.496071,95.146782 
	C104.916672,98.902367 100.495750,102.851189 95.826622,106.881790 
	C90.111687,80.357643 112.338470,58.523853 139.659653,63.175774 
	C147.032532,64.431137 154.403854,65.716240 161.807220,66.766777 
	C170.712509,68.030426 179.295578,66.341698 188.835892,62.772636 
	C184.104675,71.264671 181.013397,79.463516 175.409531,86.141235 
	C152.522827,113.413643 129.855927,140.856400 108.579102,169.418381 
	C108.082741,170.084702 107.506866,170.706619 107.887016,171.846695 
	C125.406052,169.351257 142.501968,174.196777 159.860764,175.291702 
	C167.203812,175.754868 174.225815,175.062958 179.679016,169.368240 
	C182.048264,166.894043 182.783798,168.890030 183.238312,170.636230 
	C184.144516,174.117752 182.870499,177.282394 180.802200,179.972351 
	C174.850540,187.712784 167.189529,191.984680 157.120148,191.166550 
	C141.030685,189.859299 124.951324,188.466232 108.770821,188.802139 
	C99.824409,188.987854 90.944107,189.804459 81.145943,191.280167 
	C86.246002,182.478134 89.207100,173.641693 95.366112,166.475159 
	C116.632507,141.729889 136.738358,116.051559 156.437195,90.050476 
	C157.541687,88.592644 158.689011,87.167274 159.973358,85.432053 
	C160.408234,84.631905 160.545013,84.105515 160.091995,83.492271 
z"/>
<path fill="#AB7E63" opacity="1.000000" stroke="none" 
	d="
M1063.406250,194.914093 
	C1076.228394,197.355453 1085.947266,192.495087 1093.815186,183.336823 
	C1096.611084,180.082260 1098.673096,176.202438 1101.141235,172.657562 
	C1101.809204,171.698257 1101.921265,169.691818 1103.795288,170.446701 
	C1105.030029,170.944077 1105.787964,172.205460 1105.955444,173.615067 
	C1106.113770,174.948349 1106.063843,176.265656 1105.315430,177.475204 
	C1095.490723,193.352127 1083.079956,206.463989 1064.296509,210.898056 
	C1046.380615,215.127335 1031.947021,204.245926 1028.980469,185.517807 
	C1026.142822,167.603821 1030.907593,151.152557 1039.321045,135.643616 
	C1046.993774,121.500214 1056.458252,108.652756 1069.682007,99.069450 
	C1076.864380,93.864372 1084.795898,90.656494 1093.899414,91.826279 
	C1101.746216,92.834602 1105.548584,97.197418 1106.009155,105.125557 
	C1106.943604,121.207481 1098.781372,133.048096 1087.984497,143.563721 
	C1077.428955,153.844269 1064.981323,161.112350 1050.849243,165.216217 
	C1047.008667,166.331482 1046.252930,168.120377 1046.937744,171.602921 
	C1048.925659,181.710510 1051.777466,191.154816 1063.406250,194.914093 
z"/>
<path fill="#AB7E63" opacity="1.000000" stroke="none" 
	d="
M971.896973,135.285217 
	C979.628845,122.847359 987.265015,110.720924 998.359314,101.298538 
	C1007.915161,93.182632 1018.523865,89.275703 1031.169312,92.991310 
	C1035.070068,94.137444 1035.162109,95.443214 1032.517700,98.155060 
	C1028.332764,102.446648 1024.294922,106.886841 1020.315918,111.371460 
	C1018.965515,112.893425 1017.790527,113.656502 1015.638733,112.911598 
	C1006.781921,109.845634 999.120972,112.469612 992.768005,118.748604 
	C977.092590,134.241348 967.561951,152.896729 964.908569,174.890762 
	C963.852112,183.648285 962.881470,192.417313 962.001038,201.194061 
	C961.778076,203.416031 961.122375,204.927094 958.833984,205.650238 
	C954.552917,207.003113 950.296997,208.448975 946.086670,210.007599 
	C943.347473,211.021591 942.959656,209.918335 943.243958,207.504227 
	C945.072998,191.970291 947.010986,176.446136 948.571350,160.884476 
	C950.081970,145.820099 952.596497,130.852646 953.085205,115.691727 
	C953.173584,112.952309 953.782104,109.606949 950.472046,108.249283 
	C947.353760,106.970222 944.688721,108.746719 942.244995,110.631882 
	C937.199707,114.523811 934.500488,120.126373 931.402161,125.439880 
	C930.852417,126.382553 930.836304,128.088013 929.332642,127.820755 
	C927.950317,127.575050 927.283081,126.162125 927.025757,124.813110 
	C926.529968,122.213745 927.327087,119.828972 928.688171,117.676323 
	C935.423218,107.024254 944.324890,98.565071 955.608826,93.024864 
	C964.545166,88.637291 971.540649,93.279007 971.975159,103.322540 
	C972.293213,110.674553 971.087036,117.929588 970.293152,125.613968 
	C970.622559,127.786453 970.475952,129.561401 970.116333,131.661011 
	C969.814331,131.987610 969.693298,132.324738 969.730957,132.499817 
	C968.985352,134.491028 970.562195,136.259064 969.784485,138.389679 
	C969.544128,139.101166 969.363464,139.478973 969.145691,139.840027 
	C969.140320,139.848877 968.067749,139.649353 969.270874,139.672806 
	C970.088989,138.050461 970.242310,136.418243 971.896973,135.285217 
z"/>
<path fill="#EEE5DE" opacity="1.000000" stroke="none" 
	d="
M971.800781,135.031158 
	C971.740906,136.898193 970.782410,138.413712 969.334778,139.921707 
	C969.131897,137.801392 969.232544,135.589279 969.550903,133.026047 
	C970.080261,133.614395 970.221191,134.677994 971.800781,135.031158 
z"/>
<path fill="#EEE5DE" opacity="1.000000" stroke="none" 
	d="
M970.115723,131.776642 
	C969.894165,130.272476 969.973938,128.557343 970.178101,126.431946 
	C971.350342,127.848778 971.217773,129.700317 970.115723,131.776642 
z"/>
<path fill="#B7B7B7" opacity="1.000000" stroke="none" 
	d="
M544.553345,115.925362 
	C544.499329,116.934998 544.549744,118.187332 543.160706,118.506554 
	C543.076477,117.864059 542.992188,117.221573 543.037537,116.257996 
	C543.536682,115.931450 543.906311,115.925980 544.553345,115.925362 
z"/>
<path fill="#A3A3A3" opacity="1.000000" stroke="none" 
	d="
M159.849121,83.737282 
	C160.188828,83.404388 160.562439,83.356850 160.936035,83.309303 
	C160.894562,83.815712 160.853088,84.322128 160.470947,84.982933 
	C160.047882,84.765762 159.965454,84.394196 159.849121,83.737282 
z"/>
<path fill="#CDBEB4" opacity="1.000000" stroke="none" 
	d="
M619.908752,178.920013 
	C619.278503,180.398224 618.104065,181.033737 616.262329,181.026947 
	C616.749451,180.043442 617.580261,179.140823 618.710327,178.143738 
	C619.279114,178.249695 619.522156,178.478577 619.908752,178.920013 
z"/>
<path fill="#FFFEFE" opacity="1.000000" stroke="none" 
	d="
M620.218140,178.754822 
	C619.799133,178.908203 619.522888,178.708603 619.128113,178.279129 
	C619.120544,177.908630 619.231506,177.767990 619.585022,177.742828 
	C620.005432,178.039490 620.183228,178.220673 620.218140,178.754822 
z"/>
<path fill="#CDBEB4" opacity="1.000000" stroke="none" 
	d="
M615.695435,180.994965 
	C615.732422,181.220978 615.471863,181.516724 614.902954,181.894119 
	C614.862427,181.672073 615.130188,181.368378 615.695435,180.994965 
z"/>
<path fill="#FEFEFD" opacity="1.000000" stroke="none" 
	d="
M895.824463,143.943115 
	C895.079834,154.686722 894.230103,164.960739 890.033691,174.595535 
	C886.809204,181.998810 882.881470,188.896378 876.049072,193.633743 
	C863.405823,202.400223 847.366028,197.688705 842.963318,183.004745 
	C836.555115,161.632172 837.913330,140.505295 849.119751,120.796082 
	C854.362000,111.576363 861.888184,104.974350 873.588623,105.655060 
	C880.974915,106.084778 886.466736,109.435295 890.161011,115.924210 
	C895.058594,124.526558 895.069580,134.075150 895.824463,143.943115 
z"/>
<path fill="#FDFDFD" opacity="1.000000" stroke="none" 
	d="
M276.028809,149.853592 
	C272.882812,157.686005 269.053955,164.648178 262.991211,170.126144 
	C249.035217,182.735962 229.274246,178.139633 223.998581,160.150177 
	C217.188049,136.926956 218.948181,114.021149 231.522293,92.798882 
	C238.870193,80.397293 249.710251,75.238754 260.882172,77.625015 
	C273.137329,80.242653 277.663208,89.587303 279.622742,100.279953 
	C282.663055,116.870544 281.951385,133.409821 276.028809,149.853592 
z"/>
<path fill="#FDFDFD" opacity="1.000000" stroke="none" 
	d="
M344.120087,168.775116 
	C337.781769,159.932144 336.798676,149.970474 336.405670,139.966675 
	C335.782776,124.110931 338.092957,108.792519 346.130798,94.772217 
	C348.967346,89.824486 352.448181,85.376778 357.116974,81.986961 
	C370.408997,72.336121 387.082916,77.110947 393.167023,92.333939 
	C397.548828,103.297668 397.641144,114.807625 396.861298,126.287788 
	C395.851868,141.147629 391.998901,155.153442 382.072662,166.796600 
	C374.914429,175.192932 366.029175,178.862122 354.945526,176.119812 
	C350.523682,175.025757 347.222443,172.395782 344.120087,168.775116 
z"/>
<path fill="#FDFCFB" opacity="1.000000" stroke="none" 
	d="
M1085.448486,137.365295 
	C1077.399414,147.227234 1067.094360,151.939636 1054.951538,152.809647 
	C1047.672607,153.331161 1046.621094,151.976669 1047.929077,144.869690 
	C1049.917114,134.068665 1053.869873,124.155273 1061.037476,115.691338 
	C1066.421753,109.333267 1073.206665,106.535294 1081.454346,108.292709 
	C1087.292603,109.536751 1090.601929,114.115036 1090.854004,120.778313 
	C1091.082031,126.808846 1089.162598,132.206299 1085.448486,137.365295 
z"/>
<path fill="#EEE5DE" opacity="1.000000" stroke="none" 
	d="
M968.987427,139.976868 
	C968.976074,139.961044 968.832397,140.351196 968.832397,140.351196 
	C968.832397,140.351196 968.845276,140.128494 968.938232,140.070984 
	C969.031250,140.013489 968.998779,139.992691 968.987427,139.976868 
z"/>
</svg>